<?xml version="1.0" encoding="UTF-8"?>
<!-- Generated by jsxcad -->
<!DOCTYPE svg PUBLIC "-//W3C//DTD SVG 1.1 Tiny//EN" "http://www.w3.org/Graphics/SVG/1.1/DTD/svg11-tiny.dtd">
<svg viewBox="-250 -250 500 500" width="500" height="500" xmlns="http://www.w3.org/2000/svg"><path d="M4.636329512724135e-14,139.22233158266627L-44.81515504145492,-92.15019574209326L-53.39320103420444,-87.63158779519019zM4.636329512724135e-14,139.22233158266627L-36.07795495436313,-96.34590783749013L-44.81515504145492,-92.15019574209326zM4.636329512724135e-14,139.22233158266627L-53.39320103420444,-87.63158779519019L-61.78941205107451,-82.80188227103007zM4.636329512724135e-14,139.22233158266627L-27.204501960451207,-100.20732200484609L-36.07795495436313,-96.34590783749013zM4.636329512724135e-14,139.22233158266627L-61.78941205107451,-82.80188227103007L-69.98130033634132,-77.67332840609343zM4.636329512724135e-14,139.22233158266627L-18.21797360232839,-103.7234618368483L-27.204501960451207,-100.20732200484609zM4.636329512724135e-14,139.22233158266627L-69.98130033634132,-77.67332840609343L-77.94653217016729,-72.25865735470333zM4.636329512724135e-14,139.22233158266627L-9.141857904456021,-106.88374063734423L-18.21797360232839,-103.7234618368483zM4.636329512724135e-14,139.22233158266627L-77.94653217016729,-72.25865735470333L-85.66290468745089,-66.57108576461906zM4.636329512724135e-14,139.22233158266627L-1.867050250702541e-14,-109.6779533927698L-9.141857904456021,-106.88374063734423zM4.636329512724135e-14,139.22233158266627L-85.66290468745089,-66.57108576461906L-93.10831179470225,-60.624374799224235zM4.636329512724135e-14,139.22233158266627L9.18335202180108,-112.0963078167845L-1.867050250702541e-14,-109.6779533927698zM4.636329512724135e-14,139.22233158266627L-93.10831179470225,-60.624374799224235L-100.26072762226472,-54.43287107244897zM4.636329512724135e-14,139.22233158266627L18.383504774311795,-114.12943158326462L9.18335202180108,-112.0963078167845zM4.636329512724135e-14,139.22233158266627L-100.26072762226472,-54.43287107244897L-107.09820185347373,-48.011535498230316zM4.636329512724135e-14,139.22233158266627L27.575278223396293,-115.76836021554804L18.383504774311795,-114.12943158326462zM4.636329512724135e-14,139.22233158266627L-107.09820185347373,-48.011535498230316L-113.59886108032961,-41.376019349847176zM4.636329512724135e-14,139.22233158266627L36.73296675919996,-117.00462498530165L27.575278223396293,-115.76836021554804zM4.636329512724135e-14,139.22233158266627L-113.59886108032961,-41.376019349847176L-119.74089822596649,-34.54268365258979zM4.636329512724135e-14,139.22233158266627L45.83030201775878,-117.83024301578789L36.73296675919996,-117.00462498530165zM4.636329512724135e-14,139.22233158266627L-119.74089822596649,-34.54268365258979L-125.50261058966063,-27.528674862574384zM4.636329512724135e-14,139.22233158266627L54.840432605411834,-118.23778744896642L45.83030201775878,-117.83024301578789zM4.636329512724135e-14,139.22233158266627L-125.50261058966063,-27.528674862574384L-130.8624208165511,-20.35196367846289zM4.636329512724135e-14,139.22233158266627L63.73588885742527,-118.22044578739234L54.840432605411834,-118.23778744896642zM4.636329512724135e-14,139.22233158266627L-130.8624208165511,-20.35196367846289L-135.79889670773355,-13.03140066800378zM4.636329512724135e-14,139.22233158266627L72.48857991076613,-117.77209373060508L63.73588885742527,-118.22044578739234zM4.636329512724135e-14,139.22233158266627L-135.79889670773355,-13.03140066800378L-140.29086975923798,-5.58676445889851zM4.636329512724135e-14,139.22233158266627L81.06978401949574,-116.88735949077484L72.48857991076613,-117.77209373060508zM4.636329512724135e-14,139.22233158266627L-140.29086975923798,-5.58676445889851L-144.31740415268834,1.961190090960106zM4.636329512724135e-14,139.22233158266627L89.45016461659829,-115.56170873537482L81.06978401949574,-116.88735949077484zM4.636329512724135e-14,139.22233158266627L-144.31740415268834,1.961190090960106L-147.8579901119529,9.590688504468975zM4.636329512724135e-14,139.22233158266627L97.59978122921241,-113.79156353986646L89.45016461659829,-115.56170873537482zM4.636329512724135e-14,139.22233158266627L-147.8579901119529,9.590688504468975L-150.8925615338403,17.278901907996406zM4.636329512724135e-14,139.22233158266627L105.48812541891688,-111.5743950683343L97.59978122921241,-113.79156353986646zM4.636329512724135e-14,139.22233158266627L-150.8925615338403,17.278901907996406L-153.4016306199652,25.00191931620312zM4.636329512724135e-14,139.22233158266627L113.08418075315512,-108.90884146341612L105.48812541891688,-111.5743950683343zM4.636329512724135e-14,139.22233158266627L-153.4016306199652,25.00191931620312L-155.36648462023402,32.73471903283856zM4.636329512724135e-14,139.22233158266627L120.35649495809947,-105.79483613325141L113.08418075315512,-108.90884146341612zM4.636329512724135e-14,139.22233158266627L-155.36648462023402,32.73471903283856L-156.76921916754227,40.45117444831154zM4.636329512724135e-14,139.22233158266627L127.2732535751881,-102.233725493346L120.35649495809947,-105.79483613325141zM4.636329512724135e-14,139.22233158266627L-156.76921916754227,40.45117444831154L-157.59303560222995,48.12404147103879zM4.636329512724135e-14,139.22233158266627L133.80241546578043,-98.22844083065452L127.2732535751881,-102.233725493346zM4.636329512724135e-14,139.22233158266627L-157.59303560222995,48.12404147103879L-157.82231084917817,55.72499231160266zM4.636329512724135e-14,139.22233158266627L139.91183640901727,-93.7835902225647L133.80241546578043,-98.22844083065452zM4.636329512724135e-14,139.22233158266627L-157.82231084917817,55.72499231160266L-157.44292019696218,63.22464448630768zM4.636329512724135e-14,139.22233158266627L145.56941401367806,-88.90566922065776L139.91183640901727,-93.7835902225647zM4.636329512724135e-14,139.22233158266627L-157.44292019696218,63.22464448630768L-156.4423240617678,70.59262073376514zM4.636329512724135e-14,139.22233158266627L150.74333295296145,-83.60312577252242L145.56941401367806,-88.90566922065776zM4.636329512724135e-14,139.22233158266627L-156.4423240617678,70.59262073376514L-154.80992570470127,77.79762360527816zM4.636329512724135e-14,139.22233158266627L155.40218131191193,-77.88659024158592L150.74333295296145,-83.60312577252242zM4.636329512724135e-14,139.22233158266627L-154.80992570470127,77.79762360527816L-152.53725336556087,84.8075486430764zM4.636329512724135e-14,139.22233158266627L159.51529888278478,-71.76895131957623L155.40218131191193,-77.88659024158592zM4.636329512724135e-14,139.22233158266627L-152.53725336556087,84.8075486430764L-149.61819398474435,91.58959920275804zM4.636329512724135e-14,139.22233158266627L163.0529558172433,-65.26550140308045L159.51529888278478,-71.76895131957623zM4.636329512724135e-14,139.22233158266627L-149.61819398474435,91.58959920275804L-146.0493432452797,98.11042412421686zM4.636329512724135e-14,139.22233158266627L165.98666377026197,-58.394066571773465L163.0529558172433,-65.26550140308045zM4.636329512724135e-14,139.22233158266627L-146.0493432452797,98.11042412421686L-141.8301581919154,104.33636463700033zM4.636329512724135e-14,139.22233158266627L168.28955363279536,-51.1750945116175L165.98666377026197,-58.394066571773465zM4.636329512724135e-14,139.22233158266627L-141.8301581919154,104.33636463700033L-136.96331707220233,110.23357523506357zM4.636329512724135e-14,139.22233158266627L169.93658412097147,-43.63173941648777L168.28955363279536,-51.1750945116175zM4.636329512724135e-14,139.22233158266627L-136.96331707220233,110.23357523506357L-131.45491279461996,115.76834896063477zM4.636329512724135e-14,139.22233158266627L170.90502685935311,-35.7899104355654L169.93658412097147,-43.63173941648777zM4.636329512724135e-14,139.22233158266627L-131.45491279461996,115.76834896063477L-125.31470677948026,120.9073144749749zM4.636329512724135e-14,139.22233158266627L171.17470613795527,-27.67830583778338L170.90502685935311,-35.7899104355654zM4.636329512724135e-14,139.22233158266627L-125.31470677948026,120.9073144749749L-118.55636570122338,125.61778914616808zM4.636329512724135e-14,139.22233158266627L170.7284932952293,-19.32838607985866L171.17470613795527,-27.67830583778338zM4.636329512724135e-14,139.22233158266627L-118.55636570122338,125.61778914616808L-111.19762068736804,129.86805456475568zM4.636329512724135e-14,139.22233158266627L169.5525358718084,-10.774343717985658L170.7284932952293,-19.32838607985866zM4.636329512724135e-14,139.22233158266627L-111.19762068736804,129.86805456475568L-103.26045066598498,133.62772010557453zM4.636329512724135e-14,139.22233158266627L167.6367511736213,-2.052995428621324L169.5525358718084,-10.774343717985658zM4.636329512724135e-14,139.22233158266627L-103.26045066598498,133.62772010557453L-94.77118789149374,136.8680674512379zM4.636329512724135e-14,139.22233158266627L164.97510776906628,6.7963451789403635L167.6367511736213,-2.052995428621324zM4.636329512724135e-14,139.22233158266627L-94.77118789149374,136.8680674512379L-85.76057773885667,139.5624206158341zM4.636329512724135e-14,139.22233158266627L161.56592280021908,15.73205428363391L164.97510776906628,6.7963451789403635zM4.636329512724135e-14,139.22233158266627L-85.76057773885667,139.5624206158341L-76.2637864167003,141.6865365006285zM4.636329512724135e-14,139.22233158266627L157.4122448891044,24.710432760762743L161.56592280021908,15.73205428363391zM4.636329512724135e-14,139.22233158266627L-76.2637864167003,141.6865365006285L-66.32035499084138,143.21894337481925zM4.636329512724135e-14,139.22233158266627L152.52199267830122,33.68599044570779L157.4122448891044,24.710432760762743zM4.636329512724135e-14,139.22233158266627L-66.32035499084138,143.21894337481925L-55.97407433618661,144.14131337586215zM4.636329512724135e-14,139.22233158266627L146.90824348221562,42.61177172022942L152.52199267830122,33.68599044570779zM4.636329512724135e-14,139.22233158266627L-55.97407433618661,144.14131337586215L-45.27279953965557,144.43882063599108zM4.636329512724135e-14,139.22233158266627L140.58931849327064,51.439737651733154L146.90824348221562,42.61177172022942zM4.636329512724135e-14,139.22233158266627L-45.27279953965557,144.43882063599108L-34.268169438613626,144.10043894257592zM4.636329512724135e-14,139.22233158266627L133.58885742943997,60.12117293312066L140.58931849327064,51.439737651733154zM4.636329512724135e-14,139.22233158266627L-34.268169438613626,144.10043894257592L-23.01529191396486,143.11923521234016zM4.636329512724135e-14,139.22233158266627L125.93583855796004,68.607158948309L133.58885742943997,60.12117293312066zM4.636329512724135e-14,139.22233158266627L-23.01529191396486,143.11923521234016L-11.572323348536019,141.49256800723407zM4.636329512724135e-14,139.22233158266627L117.66445815716314,76.84901990168154L125.93583855796004,68.607158948309zM4.636329512724135e-14,139.22233158266627L108.81399096325073,84.798862652713L117.66445815716314,76.84901990168154zM4.636329512724135e-14,139.22233158266627L99.42853443170773,92.41004966275264L108.81399096325073,84.798862652713zM4.636329512724135e-14,139.22233158266627L11.638894045917157,136.3150135417164L23.280113258203446,132.78179512111535zM4.636329512724135e-14,139.22233158266627L89.5566703534398,99.63772780189231L99.42853443170773,92.41004966275264zM4.636329512724135e-14,139.22233158266627L23.280113258203446,132.78179512111535L34.858576846982345,128.63854015857095zM4.636329512724135e-14,139.22233158266627L79.25105691652108,106.43932936348787L89.5566703534398,99.63772780189231zM4.636329512724135e-14,139.22233158266627L34.858576846982345,128.63854015857095L46.30902485029538,123.9056983031948zM4.636329512724135e-14,139.22233158266627L68.567956132045,112.7750138704413L79.25105691652108,106.43932936348787zM4.636329512724135e-14,139.22233158266627L46.30902485029538,123.9056983031948L57.566684339821705,118.60814721095755zM4.636329512724135e-14,139.22233158266627L57.566684339821705,118.60814721095755L68.567956132045,112.7750138704413z" style="fill:rgb(83,212,212)"/></svg>
