<?xml version="1.0" encoding="UTF-8"?>
<!-- Generated by jsxcad -->
<!DOCTYPE svg PUBLIC "-//W3C//DTD SVG 1.1 Tiny//EN" "http://www.w3.org/Graphics/SVG/1.1/DTD/svg11-tiny.dtd">
<svg viewBox="-250 -250 500 500" width="500" height="500" xmlns="http://www.w3.org/2000/svg"><path d="M0,138.68392990378646L-23.961324361857617,-102.52749309808546L-69.29045604989825,-79.15656671690472zM0,138.68392990378646L24.24849953024083,-116.23899857908066L-23.961324361857617,-102.52749309808546zM0,138.68392990378646L-69.29045604989825,-79.15656671690472L-108.40275901027647,-47.84482252548451zM0,138.68392990378646L71.7476075189287,-118.89803665711848L24.24849953024083,-116.23899857908066zM0,138.68392990378646L-108.40275901027647,-47.84482252548451L-138.07824995409385,-10.708657936830246zM0,138.68392990378646L114.53963468830264,-109.51647853837495L71.7476075189287,-118.89803665711848zM0,138.68392990378646L-138.07824995409385,-10.708657936830246L-155.1919639721992,29.56948118627896zM0,138.68392990378646L148.19172437131024,-87.77960431049247L114.53963468830264,-109.51647853837495zM0,138.68392990378646L-155.1919639721992,29.56948118627896L-156.91636488116907,69.55971714242604zM0,138.68392990378646L168.0848120680431,-54.501204799028365L148.19172437131024,-87.77960431049247zM0,138.68392990378646L-156.91636488116907,69.55971714242604L-141.23980912490214,105.02564212319632zM0,138.68392990378646L170.10949897604547,-12.161375999161626L168.0848120680431,-54.501204799028365zM0,138.68392990378646L-141.23980912490214,105.02564212319632L-107.81070185289768,131.18114275447314zM0,138.68392990378646L151.83949597755475,34.743140252565816L170.10949897604547,-12.161375999161626zM0,138.68392990378646L-107.81070185289768,131.18114275447314L-58.9038552723518,143.44564323564157zM0,138.68392990378646L113.87884890982134,79.94179235634938L151.83949597755475,34.743140252565816zM0,138.68392990378646L60.67017808107838,116.51510399557169L113.87884890982134,79.94179235634938z" style="fill:rgb(83,212,212)"/></svg>
