<?xml version="1.0" encoding="UTF-8"?>
<!-- Generated by jsxcad -->
<!DOCTYPE svg PUBLIC "-//W3C//DTD SVG 1.1 Tiny//EN" "http://www.w3.org/Graphics/SVG/1.1/DTD/svg11-tiny.dtd">
<svg viewBox="-250 -250 500 500" width="500" height="500" xmlns="http://www.w3.org/2000/svg"><path d="M6.278374207605905e-14,139.22233158266627L-5.712665724702351e-15,-109.6779533927698L-49.60184196308917,-89.67897816916641zM6.278374207605905e-14,139.22233158266627L-49.60184196308917,-89.67897816916641L-93.91789710366832,-59.94825183868468zM6.278374207605905e-14,139.22233158266627L50.84844038713177,-118.10871581764178L-5.712665724702351e-15,-109.6779533927698zM6.278374207605905e-14,139.22233158266627L-93.91789710366832,-59.94825183868468L-129.12179246161614,-22.76113349333622zM6.278374207605905e-14,139.22233158266627L98.48973148995587,-113.56732831119018L50.84844038713177,-118.10871581764178zM6.278374207605905e-14,139.22233158266627L-129.12179246161614,-22.76113349333622L-151.49621206618906,18.992983696959392zM6.278374207605905e-14,139.22233158266627L137.9239775802137,-95.31368883614425L98.48973148995587,-113.56732831119018zM6.278374207605905e-14,139.22233158266627L-151.49621206618906,18.992983696959392L-157.58049448720197,61.56834987217287zM6.278374207605905e-14,139.22233158266627L163.75805100556673,-63.76963866724274L137.9239775802137,-95.31368883614425zM6.278374207605905e-14,139.22233158266627L-157.58049448720197,61.56834987217287L-144.7151349251076,100.22017562429804zM6.278374207605905e-14,139.22233158266627L170.89027786681734,-21.202809683320485L163.75805100556673,-63.76963866724274zM6.278374207605905e-14,139.22233158266627L-144.7151349251076,100.22017562429804L-112.0442653226919,129.41949483130793zM6.278374207605905e-14,139.22233158266627L155.8634550600935,27.704890582806563L170.89027786681734,-21.202809683320485zM6.278374207605905e-14,139.22233158266627L-112.0442653226919,129.41949483130793L-61.76898941195384,143.7051578185645zM6.278374207605905e-14,139.22233158266627L118.61286197757309,75.94681417657677L155.8634550600935,27.704890582806563zM6.278374207605905e-14,139.22233158266627L63.7141595192694,115.43161245360754L118.61286197757309,75.94681417657677z" style="fill:rgb(83,212,212)"/></svg>
