<?xml version="1.0" encoding="UTF-8"?>
<!-- Generated by jsxcad -->
<!DOCTYPE svg PUBLIC "-//W3C//DTD SVG 1.1 Tiny//EN" "http://www.w3.org/Graphics/SVG/1.1/DTD/svg11-tiny.dtd">
<svg viewBox="-250 -250 500 500" width="500" height="500" xmlns="http://www.w3.org/2000/svg"><path d="M-79.93299140378544,20.676154060777428L-71.65442011406586,-89.29255798045783L-107.27608270349526,-72.70855781522941zM-79.93299140378544,20.676154060777428L-107.27608270349526,-72.70855781522941L-135.13557213941593,-46.85808741157905zM-79.93299140378544,20.676154060777428L-36.40206023479991,-92.75588908879833L-71.65442011406586,-89.29255798045783zM-79.93299140378544,20.676154060777428L-135.13557213941593,-46.85808741157905L-148.36461147114252,-17.533132683804737zM-79.93299140378544,20.676154060777428L-10.012670801797594,-81.6753241929927L-36.40206023479991,-92.75588908879833zM-79.93299140378544,20.676154060777428L-148.36461147114252,-17.533132683804737L-142.59875744320712,8.052224262129606zM-79.93299140378544,20.676154060777428L-1.927221130339468e-14,-57.84169661952454L-10.012670801797594,-81.6753241929927zM-79.93299140378544,20.676154060777428L-142.59875744320712,8.052224262129606L-117.82388440872467,22.509093232526602zM-79.93299140378544,20.676154060777428L-10.584343927970039,-26.896052960575L-1.927221130339468e-14,-57.84169661952454zM-79.93299140378544,20.676154060777428L-40.05210571221811,2.3365349453672644L-10.584343927970039,-26.896052960575zM94.5999561831079,118.12787741270887L83.22082064521337,-21.314064010478766L41.518016757885704,-2.2099761082191405zM94.5999561831079,118.12787741270887L41.518016757885704,-2.2099761082191405L11.287875846202963,28.898996239481825zM94.5999561831079,118.12787741270887L127.16351247169102,-24.076817901050834L83.22082064521337,-21.314064010478766zM94.5999561831079,118.12787741270887L11.287875846202963,28.898996239481825L2.1744648213638566e-14,65.30731220502142zM94.5999561831079,118.12787741270887L163.10189995348227,-8.986752248286429L127.16351247169102,-24.076817901050834zM94.5999561831079,118.12787741270887L2.1744648213638566e-14,65.30731220502142L12.019759231696403,98.27667795566447zM94.5999561831079,118.12787741270887L181.05447686368376,21.6274983997417L163.10189995348227,-8.986752248286429zM94.5999561831079,118.12787741270887L12.019759231696403,98.27667795566447L46.33398001296659,118.30003559095408zM94.5999561831079,118.12787741270887L174.09943029987517,60.6070452490643L181.05447686368376,21.6274983997417zM94.5999561831079,118.12787741270887L142.25981026602975,96.66171781376683L174.09943029987517,60.6070452490643z" style="fill:rgb(83,212,212)"/></svg>
