<?xml version="1.0" encoding="UTF-8"?>
<!-- Generated by jsxcad -->
<!DOCTYPE svg PUBLIC "-//W3C//DTD SVG 1.1 Tiny//EN" "http://www.w3.org/Graphics/SVG/1.1/DTD/svg11-tiny.dtd">
<svg viewBox="-250 -250 500 500" width="500" height="500" xmlns="http://www.w3.org/2000/svg"><path d="M55.83221239260742,-134.7992788001422L66.79998072880798,-55.54349687396465L62.54223004974367,-118.36276297618812z" style="fill:rgb(247,158,158)"/><path d="M-61.612611218959664,-101.12223358635642L59.69074312201649,-72.16421876398216L55.83221239260742,-134.7992788001422zM59.69074312201649,-72.16421876398216L-61.612611218959664,-101.12223358635642L-65.74055309795148,-38.14418952117515zM-182.84100196130052,171.33394337672695L-61.612611218959664,-101.12223358635642L-145.3759609050435,-77.10329216692044z" style="fill:rgb(83,212,212)"/><path d="M66.79998072880798,-55.54349687396465L55.83221239260742,-134.7992788001422L59.69074312201649,-72.16421876398216z" style="fill:rgb(247,158,158)"/><path d="M-57.02976577671795,-22.516257936926024L59.69074312201649,-72.16421876398216L-65.74055309795148,-38.14418952117515zM59.69074312201649,-72.16421876398216L-57.02976577671795,-22.516257936926024L66.79998072880798,-55.54349687396465z" style="fill:rgb(127,37,217)"/><path d="M-77.92206325628942,147.7033612918464L-53.49740935161922,-85.6071619703404L-61.612611218959664,-101.12223358635642z" style="fill:rgb(247,158,158)"/><path d="M-61.612611218959664,-101.12223358635642L-182.84100196130052,171.33394337672695L-72.18930252136529,60.24132875135523zM55.83221239260742,-134.7992788001422L190.54764091189688,87.2366999403201L148.56160905973582,-161.38921583983787z" style="fill:rgb(83,212,212)"/><path d="M190.54764091189688,87.2366999403201L154.0965924904307,-144.2066627143354L148.56160905973582,-161.38921583983787z" style="fill:rgb(247,158,158)"/><path d="M59.69074312201649,-72.16421876398216L190.54764091189688,87.2366999403201L55.83221239260742,-134.7992788001422z" style="fill:rgb(83,212,212)"/><path d="M-53.49740935161922,-85.6071619703404L-77.92206325628942,147.7033612918464L-67.41637832687603,162.99754157960064z" style="fill:rgb(247,158,158)"/><path d="M-77.92206325628942,147.7033612918464L-72.18930252136529,60.24132875135523L-182.84100196130052,171.33394337672695z" style="fill:rgb(83,212,212)"/><path d="M65.74926629495832,26.18304153235739L79.41494223371885,130.57881707225405L73.46879389072622,42.84880004565936z" style="fill:rgb(247,158,158)"/><path d="M-72.18930252136529,60.24132875135523L71.16675823040347,114.12451300809786L65.74926629495832,26.18304153235739z" style="fill:rgb(83,212,212)"/><path d="M154.0965924904307,-144.2066627143354L190.54764091189688,87.2366999403201L196.85223124670043,104.64998532125902z" style="fill:rgb(247,158,158)"/><path d="M71.16675823040347,114.12451300809786L-72.18930252136529,60.24132875135523L-77.92206325628942,147.7033612918464zM190.54764091189688,87.2366999403201L59.69074312201649,-72.16421876398216L71.16675823040347,114.12451300809786z" style="fill:rgb(83,212,212)"/><path d="M-170.8598438623034,185.83669459963664L190.54764091189688,87.2366999403201L-182.84100196130052,171.33394337672695z" style="fill:rgb(127,37,217)"/><path d="M79.41494223371885,130.57881707225405L65.74926629495832,26.18304153235739L71.16675823040347,114.12451300809786z" style="fill:rgb(247,158,158)"/><path d="M190.54764091189688,87.2366999403201L-170.8598438623034,185.83669459963664L196.85223124670043,104.64998532125902z" style="fill:rgb(127,37,217)"/></svg>
