<?xml version="1.0" encoding="UTF-8"?>
<!-- Generated by jsxcad -->
<!DOCTYPE svg PUBLIC "-//W3C//DTD SVG 1.1 Tiny//EN" "http://www.w3.org/Graphics/SVG/1.1/DTD/svg11-tiny.dtd">
<svg viewBox="-250 -250 500 500" width="500" height="500" xmlns="http://www.w3.org/2000/svg"><path d="M-35.734378089772314,-143.7517930652734L-69.56008577278753,-128.60352687078642L-101.07429557010762,-109.20925474599524zM33.995133788203766,-159.07266966312832L-0.7941191038948636,-154.07756959170447L-35.734378089772314,-143.7517930652734zM-101.07429557010762,-109.20925474599524L-129.11635327788363,-86.22221895419888L-170.20006568957172,-32.618471525091536zM-129.11635327788363,-86.22221895419888L-152.53844673293878,-60.39602488712521L-170.20006568957172,-32.618471525091536zM-67.33199414652152,-47.41694228979093L-35.734378089772314,-143.7517930652734L-101.07429557010762,-109.20925474599524z" style="fill:rgb(83,212,212)"/><path d="M-38.25284278956703,-72.1666251501043L1.1078156181958743,4.161507943475337L35.93776885740494,-4.765163950202818z" style="fill:rgb(127,37,217)"/><path d="M-25.581673403349466,27.930897748318376L1.1078156181958743,4.161507943475337L-38.25284278956703,-72.1666251501043z" style="fill:rgb(204,78,216)"/><path d="M33.995133788203766,-159.07266966312832L-35.734378089772314,-143.7517930652734L-1.2003211359665475,-82.4617590873309zM97.53592945805666,-151.47209095173656L67.26739727408626,-158.30871709760328L33.995133788203766,-159.07266966312832z" style="fill:rgb(83,212,212)"/><path d="M-1.2003211359665475,-82.4617590873309L35.93776885740494,-4.765163950202818L64.07047337427254,5.331140497173513z" style="fill:rgb(50,38,176)"/><path d="M-32.38911692019848,56.63551283252255L-25.581673403349466,27.930897748318376L-67.33199414652152,-47.41694228979093z" style="fill:rgb(245,142,173)"/><path d="M-35.734378089772314,-143.7517930652734L-38.25284278956703,-72.1666251501043L-1.2003211359665475,-82.4617590873309zM-67.33199414652152,-47.41694228979093L-38.25284278956703,-72.1666251501043L-35.734378089772314,-143.7517930652734z" style="fill:rgb(83,212,212)"/><path d="M35.93776885740494,-4.765163950202818L-1.2003211359665475,-82.4617590873309L-38.25284278956703,-72.1666251501043z" style="fill:rgb(127,37,217)"/><path d="M-38.25284278956703,-72.1666251501043L-67.33199414652152,-47.41694228979093L-25.581673403349466,27.930897748318376z" style="fill:rgb(204,78,216)"/><path d="M-75.73092027987649,-18.459171130448127L-67.33199414652152,-47.41694228979093L-101.07429557010762,-109.20925474599524zM-101.07429557010762,-109.20925474599524L-170.20006568957172,-32.618471525091536L-163.03555398114887,73.8225461149444zM142.5824641945466,-119.29299704260504L97.53592945805666,-151.47209095173656L33.995133788203766,-159.07266966312832zM-170.20006568957172,-32.618471525091536L-180.9900543635364,-3.9483289731196733L-183.88637071360034,24.355241140774975zM33.995133788203766,-159.07266966312832L-1.2003211359665475,-82.4617590873309L28.14275671047035,-73.54487234717924z" style="fill:rgb(83,212,212)"/><path d="M64.07047337427254,5.331140497173513L28.14275671047035,-73.54487234717924L-1.2003211359665475,-82.4617590873309z" style="fill:rgb(50,38,176)"/><path d="M-67.33199414652152,-47.41694228979093L-75.73092027987649,-18.459171130448127L-32.38911692019848,56.63551283252255z" style="fill:rgb(245,142,173)"/><path d="M-75.73092027987649,-18.459171130448127L-101.07429557010762,-109.20925474599524L-163.03555398114887,73.8225461149444zM142.5824641945466,-119.29299704260504L123.1981640507499,-138.4252459090766L97.53592945805666,-151.47209095173656zM-170.20006568957172,-32.618471525091536L-183.88637071360034,24.355241140774975L-163.03555398114887,73.8225461149444z" style="fill:rgb(83,212,212)"/><path d="M184.93457913852322,18.557016227800887L182.1907087293886,-10.883859218799778L154.05343940674214,-94.5657080904113z" style="fill:rgb(247,153,163)"/><path d="M-163.03555398114887,73.8225461149444L-111.30121597951546,145.435252320135L-87.56299626849231,163.82854481171083z" style="fill:rgb(40,43,166)"/><path d="M129.24220067122235,0.9904685992163453L33.995133788203766,-159.07266966312832L28.14275671047035,-73.54487234717924zM-183.88637071360034,24.355241140774975L-178.06157404924576,50.82554268062023L-163.03555398114887,73.8225461149444zM129.24220067122235,0.9904685992163453L142.5824641945466,-119.29299704260504L33.995133788203766,-159.07266966312832zM-58.202539824855855,1.6726510002897834L-75.73092027987649,-18.459171130448127L-163.03555398114887,73.8225461149444z" style="fill:rgb(83,212,212)"/><path d="M178.09761480857605,50.625017342932416L184.93457913852322,18.557016227800887L156.18638040776048,-65.19943026426745z" style="fill:rgb(242,131,182)"/><path d="M-138.86232734733423,91.62800942200349L-87.56299626849231,163.82854481171083L-56.31419031422999,175.6989258537966z" style="fill:rgb(61,35,185)"/><path d="M154.05343940674214,-94.5657080904113L156.18638040776048,-65.19943026426745L184.93457913852322,18.557016227800887z" style="fill:rgb(247,153,163)"/><path d="M-87.56299626849231,163.82854481171083L-138.86232734733423,91.62800942200349L-163.03555398114887,73.8225461149444z" style="fill:rgb(40,43,166)"/><path d="M-21.448419304454283,2.328613403127782L-58.202539824855855,1.6726510002897834L-163.03555398114887,73.8225461149444zM156.18638040776048,-65.19943026426745L154.05343940674214,-94.5657080904113L142.5824641945466,-119.29299704260504zM129.24220067122235,0.9904685992163453L28.14275671047035,-73.54487234717924L35.83810918827534,-48.242450157335945z" style="fill:rgb(83,212,212)"/><path d="M161.433833195103,83.32968904633971L178.09761480857605,50.625017342932416L148.0042051640935,-32.68009750227699z" style="fill:rgb(231,109,199)"/><path d="M-106.31648081338385,102.61342781387239L-56.31419031422999,175.6989258537966L-19.161187868394403,179.75745759126752z" style="fill:rgb(86,32,201)"/><path d="M156.18638040776048,-65.19943026426745L148.0042051640935,-32.68009750227699L178.09761480857605,50.625017342932416z" style="fill:rgb(242,131,182)"/><path d="M129.24220067122235,0.9904685992163453L35.83810918827534,-48.242450157335945L16.420544620513752,-17.783704640212978z" style="fill:rgb(83,212,212)"/><path d="M-56.31419031422999,175.6989258537966L-106.31648081338385,102.61342781387239L-138.86232734733423,91.62800942200349z" style="fill:rgb(61,35,185)"/><path d="M129.24220067122235,0.9904685992163453L156.18638040776048,-65.19943026426745L142.5824641945466,-119.29299704260504z" style="fill:rgb(83,212,212)"/><path d="M135.5382993534624,114.36644107243622L161.433833195103,83.32968904633971L129.24220067122235,0.9904685992163453z" style="fill:rgb(214,88,211)"/><path d="M-21.448419304454283,2.328613403127782L-163.03555398114887,73.8225461149444L129.24220067122235,0.9904685992163453zM129.24220067122235,0.9904685992163453L16.420544620513752,-17.783704640212978L-21.448419304454283,2.328613403127782z" style="fill:rgb(83,212,212)"/><path d="M-67.02080915238591,105.47260338395041L-19.161187868394403,179.75745759126752L21.559509583309787,175.25610016372232z" style="fill:rgb(113,34,213)"/><path d="M-163.03555398114887,73.8225461149444L-138.86232734733423,91.62800942200349L-106.31648081338385,102.61342781387239z" style="fill:rgb(83,212,212)"/><path d="M101.92892550259191,141.36153653312033L135.5382993534624,114.36644107243622L100.57264438837545,33.42381253348154z" style="fill:rgb(193,69,219)"/><path d="M-23.44539761157977,99.47971671314653L21.559509583309787,175.25610016372232L62.96027350299854,162.1849526630901z" style="fill:rgb(141,41,220)"/><path d="M148.0042051640935,-32.68009750227699L129.24220067122235,0.9904685992163453L161.433833195103,83.32968904633971z" style="fill:rgb(231,109,199)"/><path d="M-19.161187868394403,179.75745759126752L-67.02080915238591,105.47260338395041L-106.31648081338385,102.61342781387239z" style="fill:rgb(86,32,201)"/><path d="M21.274668030863502,84.70353877982136L62.96027350299854,162.1849526630901L101.92892550259191,141.36153653312033z" style="fill:rgb(168,53,222)"/><path d="M-163.03555398114887,73.8225461149444L-106.31648081338385,102.61342781387239L-23.44539761157977,99.47971671314653zM129.24220067122235,0.9904685992163453L148.0042051640935,-32.68009750227699L156.18638040776048,-65.19943026426745zM-163.03555398114887,73.8225461149444L-23.44539761157977,99.47971671314653L129.24220067122235,0.9904685992163453z" style="fill:rgb(83,212,212)"/><path d="M129.24220067122235,0.9904685992163453L100.57264438837545,33.42381253348154L135.5382993534624,114.36644107243622z" style="fill:rgb(214,88,211)"/><path d="M21.559509583309787,175.25610016372232L-23.44539761157977,99.47971671314653L-67.02080915238591,105.47260338395041z" style="fill:rgb(113,34,213)"/><path d="M100.57264438837545,33.42381253348154L63.702779510942094,62.09889115928315L101.92892550259191,141.36153653312033z" style="fill:rgb(193,69,219)"/><path d="M62.96027350299854,162.1849526630901L21.274668030863502,84.70353877982136L-23.44539761157977,99.47971671314653z" style="fill:rgb(141,41,220)"/><path d="M101.92892550259191,141.36153653312033L63.702779510942094,62.09889115928315L21.274668030863502,84.70353877982136z" style="fill:rgb(168,53,222)"/><path d="M-106.31648081338385,102.61342781387239L-67.02080915238591,105.47260338395041L-23.44539761157977,99.47971671314653zM63.702779510942094,62.09889115928315L100.57264438837545,33.42381253348154L129.24220067122235,0.9904685992163453zM-23.44539761157977,99.47971671314653L63.702779510942094,62.09889115928315L129.24220067122235,0.9904685992163453zM-23.44539761157977,99.47971671314653L21.274668030863502,84.70353877982136L63.702779510942094,62.09889115928315z" style="fill:rgb(83,212,212)"/></svg>
