<?xml version="1.0" encoding="UTF-8"?>
<!-- Generated by jsxcad -->
<!DOCTYPE svg PUBLIC "-//W3C//DTD SVG 1.1 Tiny//EN" "http://www.w3.org/Graphics/SVG/1.1/DTD/svg11-tiny.dtd">
<svg baseProfile="tiny" height="1738.4459478010494mm" width="1505.3963579846939mm" viewBox="-773.0089432859867 -869.66959948819 1505.3963579846939 1738.4459478010494" version="1.1" stroke="black" stroke-width=".1" fill="none" xmlns="http://www.w3.org/2000/svg">
<path fill="#4682b4" stroke="#4682b4" d="M532.7613762486131 -182.1365149833517 L532.7613762486131 -182.1365149833517 L532.7613762486131 -302.8357380688127 L532.7613762486131 -302.8357380688127 z"/>
<path fill="#4682b4" stroke="#4682b4" d="M532.7613762486131 -302.8357380688127 L532.7613762486131 -302.8357380688127 L341.9533851276357 -302.8357380688127 L341.9533851276357 -302.8357380688127 z"/>
<path fill="#4682b4" stroke="#4682b4" d="M341.9533851276357 -182.1365149833517 L341.9533851276357 -182.1365149833517 L532.7613762486131 -182.1365149833517 L532.7613762486131 -182.1365149833517 z"/>
<path fill="#4682b4" stroke="#4682b4" d="M341.9533851276357 -302.8357380688127 L341.9533851276357 -302.8357380688127 L341.9533851276357 -182.1365149833517 L341.9533851276357 -182.1365149833517 z"/>
<path fill="#4682b4" stroke="#4682b4" d="M532.7613762486131 -182.13651498335165 L532.7613762486131 -302.83573806881265 L341.9533851276357 -302.83573806881265 L341.9533851276357 -182.13651498335165 z"/>
<path fill="#4682b4" stroke="#4682b4" d="M341.9533851276357 -302.83573806881265 L532.7613762486131 -302.83573806881265 L532.7613762486131 -182.13651498335165 L341.9533851276357 -182.13651498335165 z"/>
<path fill="#4682b4" stroke="#4682b4" d="M593.3607103218651 -214.67258601553817 L593.3607103218651 -214.67258601553817 L593.3607103218651 -337.8745837957827 L593.3607103218651 -337.8745837957827 z"/>
<path fill="#4682b4" stroke="#4682b4" d="M593.3607103218651 -337.8745837957827 L593.3607103218651 -337.8745837957827 L398.2241953385125 -337.8745837957827 L398.2241953385125 -337.8745837957827 z"/>
<path fill="#4682b4" stroke="#4682b4" d="M398.2241953385125 -214.67258601553817 L398.2241953385125 -214.67258601553817 L593.3607103218651 -214.67258601553817 L593.3607103218651 -214.67258601553817 z"/>
<path fill="#4682b4" stroke="#4682b4" d="M398.2241953385125 -337.8745837957827 L398.2241953385125 -337.8745837957827 L398.2241953385125 -214.67258601553817 L398.2241953385125 -214.67258601553817 z"/>
<path fill="#4682b4" stroke="#4682b4" d="M593.3607103218651 -214.67258601553814 L593.3607103218651 -337.87458379578266 L398.2241953385125 -337.87458379578266 L398.2241953385125 -214.67258601553814 z"/>
<path fill="#4682b4" stroke="#4682b4" d="M398.2241953385125 -337.87458379578266 L593.3607103218651 -337.87458379578266 L593.3607103218651 -214.67258601553814 L398.2241953385125 -214.67258601553814 z"/>
<path fill="#4682b4" stroke="#4682b4" d="M523.7513873473923 -197.7192008879022 L523.7513873473923 -197.7192008879022 L523.7513873473923 -318.4184239733632 L523.7513873473923 -318.4184239733632 z"/>
<path fill="#4682b4" stroke="#4682b4" d="M523.7513873473923 -318.4184239733632 L523.7513873473923 -318.4184239733632 L332.94339622641485 -318.4184239733632 L332.94339622641485 -318.4184239733632 z"/>
<path fill="#4682b4" stroke="#4682b4" d="M332.94339622641485 -197.7192008879022 L332.94339622641485 -197.7192008879022 L523.7513873473923 -197.7192008879022 L523.7513873473923 -197.7192008879022 z"/>
<path fill="#4682b4" stroke="#4682b4" d="M332.94339622641485 -318.4184239733632 L332.94339622641485 -318.4184239733632 L332.94339622641485 -197.7192008879022 L332.94339622641485 -197.7192008879022 z"/>
<path fill="#4682b4" stroke="#4682b4" d="M523.7513873473923 -197.71920088790213 L523.7513873473923 -318.41842397336313 L332.94339622641485 -318.41842397336313 L332.94339622641485 -197.71920088790213 z"/>
<path fill="#4682b4" stroke="#4682b4" d="M332.94339622641485 -318.41842397336313 L523.7513873473923 -318.41842397336313 L523.7513873473923 -197.71920088790213 L332.94339622641485 -197.71920088790213 z"/>
<path fill="#4682b4" stroke="#4682b4" d="M584.3507214206443 -230.25527192008866 L584.3507214206443 -230.25527192008866 L584.3507214206443 -353.4572697003332 L584.3507214206443 -353.4572697003332 z"/>
<path fill="#4682b4" stroke="#4682b4" d="M584.3507214206443 -353.4572697003332 L584.3507214206443 -353.4572697003332 L389.21420643729164 -353.4572697003332 L389.21420643729164 -353.4572697003332 z"/>
<path fill="#4682b4" stroke="#4682b4" d="M389.21420643729164 -230.25527192008866 L389.21420643729164 -230.25527192008866 L584.3507214206443 -230.25527192008866 L584.3507214206443 -230.25527192008866 z"/>
<path fill="#4682b4" stroke="#4682b4" d="M389.21420643729164 -353.4572697003332 L389.21420643729164 -353.4572697003332 L389.21420643729164 -230.25527192008866 L389.21420643729164 -230.25527192008866 z"/>
<path fill="#4682b4" stroke="#4682b4" d="M584.3507214206443 -230.25527192008863 L584.3507214206443 -353.45726970033314 L389.21420643729164 -353.45726970033314 L389.21420643729164 -230.25527192008863 z"/>
<path fill="#4682b4" stroke="#4682b4" d="M389.21420643729164 -353.45726970033314 L584.3507214206443 -353.45726970033314 L584.3507214206443 -230.25527192008863 L389.21420643729164 -230.25527192008863 z"/>
<path fill="#4682b4" stroke="#4682b4" d="M500.6580325033675 -159.95838060515047 L500.6580325033675 -159.95838060515047 L500.6580325033675 -349.6065472527853 L500.6580325033675 -349.6065472527853 z"/>
<path fill="#4682b4" stroke="#4682b4" d="M500.6580325033675 -349.6065472527853 L500.6580325033675 -349.6065472527853 L380.62942587621075 -349.6065472527853 L380.62942587621075 -349.6065472527853 z"/>
<path fill="#4682b4" stroke="#4682b4" d="M380.62942587621075 -159.95838060515047 L380.62942587621075 -159.95838060515047 L500.6580325033675 -159.95838060515047 L500.6580325033675 -159.95838060515047 z"/>
<path fill="#4682b4" stroke="#4682b4" d="M380.62942587621075 -349.6065472527853 L380.62942587621075 -349.6065472527853 L380.62942587621075 -159.95838060515047 L380.62942587621075 -159.95838060515047 z"/>
<path fill="#4682b4" stroke="#4682b4" d="M500.6580325033675 -159.95838060515044 L500.6580325033675 -349.6065472527852 L380.62942587621075 -349.6065472527852 L380.62942587621075 -159.95838060515044 z"/>
<path fill="#4682b4" stroke="#4682b4" d="M380.62942587621075 -349.6065472527852 L500.6580325033675 -349.6065472527852 L500.6580325033675 -159.95838060515044 L380.62942587621075 -159.95838060515044 z"/>
<path fill="#4682b4" stroke="#4682b4" d="M485.075346598817 -150.94839170392962 L485.075346598817 -150.94839170392962 L485.075346598817 -340.5965583515644 L485.075346598817 -340.5965583515644 z"/>
<path fill="#4682b4" stroke="#4682b4" d="M485.075346598817 -340.5965583515644 L485.075346598817 -340.5965583515644 L365.0467399716602 -340.5965583515644 L365.0467399716602 -340.5965583515644 z"/>
<path fill="#4682b4" stroke="#4682b4" d="M365.0467399716602 -150.94839170392962 L365.0467399716602 -150.94839170392962 L485.075346598817 -150.94839170392962 L485.075346598817 -150.94839170392962 z"/>
<path fill="#4682b4" stroke="#4682b4" d="M365.0467399716602 -340.5965583515644 L365.0467399716602 -340.5965583515644 L365.0467399716602 -150.94839170392962 L365.0467399716602 -150.94839170392962 z"/>
<path fill="#4682b4" stroke="#4682b4" d="M485.075346598817 -150.9483917039296 L485.075346598817 -340.59655835156434 L365.0467399716602 -340.59655835156434 L365.0467399716602 -150.9483917039296 z"/>
<path fill="#4682b4" stroke="#4682b4" d="M365.0467399716602 -340.59655835156434 L485.075346598817 -340.59655835156434 L485.075346598817 -150.9483917039296 L365.0467399716602 -150.9483917039296 z"/>
<path fill="#4682b4" stroke="#4682b4" d="M1.5e-323 605.0000000000005 L1.5e-323 605.0000000000005 L1.5e-323 394.9999999999998 L1.5e-323 394.9999999999998 z"/>
<path fill="#4682b4" stroke="#4682b4" d="M1.5e-323 394.9999999999998 L1.5e-323 394.9999999999998 L-18.000000000000014 394.9999999999998 L-18.000000000000014 394.9999999999998 z"/>
<path fill="#4682b4" stroke="#4682b4" d="M-18.000000000000014 605.0000000000005 L-18.000000000000014 605.0000000000005 L1.5e-323 605.0000000000005 L1.5e-323 605.0000000000005 z"/>
<path fill="#4682b4" stroke="#4682b4" d="M-18.000000000000014 394.9999999999998 L-18.000000000000014 394.9999999999998 L-18.000000000000014 605.0000000000005 L-18.000000000000014 605.0000000000005 z"/>
<path fill="#4682b4" stroke="#4682b4" d="M1.5e-323 605.0000000000003 L1.5e-323 394.9999999999997 L-18.000000000000014 394.9999999999997 L-18.000000000000014 605.0000000000003 z"/>
<path fill="#4682b4" stroke="#4682b4" d="M-18.000000000000014 394.9999999999997 L1.5e-323 394.9999999999997 L1.5e-323 605.0000000000003 L-18.000000000000014 605.0000000000003 z"/>
<path fill="#4682b4" stroke="#4682b4" d="M1.5e-323 675.0000000000005 L1.5e-323 675.0000000000005 L1.5e-323 459.9999999999998 L1.5e-323 459.9999999999998 z"/>
<path fill="#4682b4" stroke="#4682b4" d="M1.5e-323 459.9999999999998 L1.5e-323 459.9999999999998 L-18.000000000000014 459.9999999999998 L-18.000000000000014 459.9999999999998 z"/>
<path fill="#4682b4" stroke="#4682b4" d="M-18.000000000000014 675.0000000000005 L-18.000000000000014 675.0000000000005 L1.5e-323 675.0000000000005 L1.5e-323 675.0000000000005 z"/>
<path fill="#4682b4" stroke="#4682b4" d="M-18.000000000000014 459.9999999999998 L-18.000000000000014 459.9999999999998 L-18.000000000000014 675.0000000000005 L-18.000000000000014 675.0000000000005 z"/>
<path fill="#4682b4" stroke="#4682b4" d="M1.5e-323 675.0000000000003 L1.5e-323 459.9999999999997 L-18.000000000000014 459.9999999999997 L-18.000000000000014 675.0000000000003 z"/>
<path fill="#4682b4" stroke="#4682b4" d="M-18.000000000000014 459.9999999999997 L1.5e-323 459.9999999999997 L1.5e-323 675.0000000000003 L-18.000000000000014 675.0000000000003 z"/>
<path fill="#4682b4" stroke="#4682b4" d="M18.000000000000014 605.0000000000005 L18.000000000000014 605.0000000000005 L18.000000000000014 394.9999999999998 L18.000000000000014 394.9999999999998 z"/>
<path fill="#4682b4" stroke="#4682b4" d="M18.000000000000014 394.9999999999998 L18.000000000000014 394.9999999999998 L-2e-323 394.9999999999998 L-2e-323 394.9999999999998 z"/>
<path fill="#4682b4" stroke="#4682b4" d="M-2e-323 605.0000000000005 L-2e-323 605.0000000000005 L18.000000000000014 605.0000000000005 L18.000000000000014 605.0000000000005 z"/>
<path fill="#4682b4" stroke="#4682b4" d="M-2e-323 394.9999999999998 L-2e-323 394.9999999999998 L-2e-323 605.0000000000005 L-2e-323 605.0000000000005 z"/>
<path fill="#4682b4" stroke="#4682b4" d="M18.000000000000014 605.0000000000003 L18.000000000000014 394.9999999999997 L-2e-323 394.9999999999997 L-2e-323 605.0000000000003 z"/>
<path fill="#4682b4" stroke="#4682b4" d="M-2e-323 394.9999999999997 L18.000000000000014 394.9999999999997 L18.000000000000014 605.0000000000003 L-2e-323 605.0000000000003 z"/>
<path fill="#4682b4" stroke="#4682b4" d="M18.000000000000014 675.0000000000005 L18.000000000000014 675.0000000000005 L18.000000000000014 459.9999999999998 L18.000000000000014 459.9999999999998 z"/>
<path fill="#4682b4" stroke="#4682b4" d="M18.000000000000014 459.9999999999998 L18.000000000000014 459.9999999999998 L-2e-323 459.9999999999998 L-2e-323 459.9999999999998 z"/>
<path fill="#4682b4" stroke="#4682b4" d="M-2e-323 675.0000000000005 L-2e-323 675.0000000000005 L18.000000000000014 675.0000000000005 L18.000000000000014 675.0000000000005 z"/>
<path fill="#4682b4" stroke="#4682b4" d="M-2e-323 459.9999999999998 L-2e-323 459.9999999999998 L-2e-323 675.0000000000005 L-2e-323 675.0000000000005 z"/>
<path fill="#4682b4" stroke="#4682b4" d="M18.000000000000014 675.0000000000003 L18.000000000000014 459.9999999999997 L-2e-323 459.9999999999997 L-2e-323 675.0000000000003 z"/>
<path fill="#4682b4" stroke="#4682b4" d="M-2e-323 459.9999999999997 L18.000000000000014 459.9999999999997 L18.000000000000014 675.0000000000003 L-2e-323 675.0000000000003 z"/>
<path fill="#4682b4" stroke="#4682b4" d="M104.33012701892224 518.0000000000005 L104.33012701892224 518.0000000000005 L104.33012701892224 499.9999999999998 L104.33012701892224 499.9999999999998 z"/>
<path fill="#4682b4" stroke="#4682b4" d="M104.33012701892224 499.9999999999998 L104.33012701892224 499.9999999999998 L-104.33012701892224 499.9999999999998 L-104.33012701892224 499.9999999999998 z"/>
<path fill="#4682b4" stroke="#4682b4" d="M-104.33012701892224 518.0000000000005 L-104.33012701892224 518.0000000000005 L104.33012701892224 518.0000000000005 L104.33012701892224 518.0000000000005 z"/>
<path fill="#4682b4" stroke="#4682b4" d="M-104.33012701892224 499.9999999999998 L-104.33012701892224 499.9999999999998 L-104.33012701892224 518.0000000000005 L-104.33012701892224 518.0000000000005 z"/>
<path fill="#4682b4" stroke="#4682b4" d="M104.33012701892224 518.0000000000003 L104.33012701892224 499.9999999999997 L-104.33012701892224 499.9999999999997 L-104.33012701892224 518.0000000000003 z"/>
<path fill="#4682b4" stroke="#4682b4" d="M-104.33012701892224 499.9999999999997 L104.33012701892224 499.9999999999997 L104.33012701892224 518.0000000000003 L-104.33012701892224 518.0000000000003 z"/>
<path fill="#4682b4" stroke="#4682b4" d="M104.33012701892224 500.0000000000002 L104.33012701892224 500.0000000000002 L104.33012701892224 481.9999999999998 L104.33012701892224 481.9999999999998 z"/>
<path fill="#4682b4" stroke="#4682b4" d="M104.33012701892224 481.9999999999998 L104.33012701892224 481.9999999999998 L-104.33012701892224 481.9999999999998 L-104.33012701892224 481.9999999999998 z"/>
<path fill="#4682b4" stroke="#4682b4" d="M-104.33012701892224 500.0000000000002 L-104.33012701892224 500.0000000000002 L104.33012701892224 500.0000000000002 L104.33012701892224 500.0000000000002 z"/>
<path fill="#4682b4" stroke="#4682b4" d="M-104.33012701892224 481.9999999999998 L-104.33012701892224 481.9999999999998 L-104.33012701892224 500.0000000000002 L-104.33012701892224 500.0000000000002 z"/>
<path fill="#4682b4" stroke="#4682b4" d="M104.33012701892224 500.00000000000017 L104.33012701892224 481.9999999999997 L-104.33012701892224 481.9999999999997 L-104.33012701892224 500.00000000000017 z"/>
<path fill="#4682b4" stroke="#4682b4" d="M-104.33012701892224 481.9999999999997 L104.33012701892224 481.9999999999997 L104.33012701892224 500.00000000000017 L-104.33012701892224 500.00000000000017 z"/>
<path fill="#4682b4" stroke="#4682b4" d="M-332.94339622641485 -197.7192008879022 L-332.94339622641485 -197.7192008879022 L-332.94339622641485 -318.4184239733632 L-332.94339622641485 -318.4184239733632 z"/>
<path fill="#4682b4" stroke="#4682b4" d="M-332.94339622641485 -318.4184239733632 L-332.94339622641485 -318.4184239733632 L-523.7513873473923 -318.4184239733632 L-523.7513873473923 -318.4184239733632 z"/>
<path fill="#4682b4" stroke="#4682b4" d="M-523.7513873473923 -197.7192008879022 L-523.7513873473923 -197.7192008879022 L-332.94339622641485 -197.7192008879022 L-332.94339622641485 -197.7192008879022 z"/>
<path fill="#4682b4" stroke="#4682b4" d="M-523.7513873473923 -318.4184239733632 L-523.7513873473923 -318.4184239733632 L-523.7513873473923 -197.7192008879022 L-523.7513873473923 -197.7192008879022 z"/>
<path fill="#4682b4" stroke="#4682b4" d="M-332.94339622641485 -197.71920088790213 L-332.94339622641485 -318.41842397336313 L-523.7513873473923 -318.41842397336313 L-523.7513873473923 -197.71920088790213 z"/>
<path fill="#4682b4" stroke="#4682b4" d="M-523.7513873473923 -318.41842397336313 L-332.94339622641485 -318.41842397336313 L-332.94339622641485 -197.71920088790213 L-523.7513873473923 -197.71920088790213 z"/>
<path fill="#4682b4" stroke="#4682b4" d="M-389.21420643729164 -230.25527192008866 L-389.21420643729164 -230.25527192008866 L-389.21420643729164 -353.4572697003332 L-389.21420643729164 -353.4572697003332 z"/>
<path fill="#4682b4" stroke="#4682b4" d="M-389.21420643729164 -353.4572697003332 L-389.21420643729164 -353.4572697003332 L-584.3507214206443 -353.4572697003332 L-584.3507214206443 -353.4572697003332 z"/>
<path fill="#4682b4" stroke="#4682b4" d="M-584.3507214206443 -230.25527192008866 L-584.3507214206443 -230.25527192008866 L-389.21420643729164 -230.25527192008866 L-389.21420643729164 -230.25527192008866 z"/>
<path fill="#4682b4" stroke="#4682b4" d="M-584.3507214206443 -353.4572697003332 L-584.3507214206443 -353.4572697003332 L-584.3507214206443 -230.25527192008866 L-584.3507214206443 -230.25527192008866 z"/>
<path fill="#4682b4" stroke="#4682b4" d="M-389.21420643729164 -230.25527192008863 L-389.21420643729164 -353.45726970033314 L-584.3507214206443 -353.45726970033314 L-584.3507214206443 -230.25527192008863 z"/>
<path fill="#4682b4" stroke="#4682b4" d="M-584.3507214206443 -353.45726970033314 L-389.21420643729164 -353.45726970033314 L-389.21420643729164 -230.25527192008863 L-584.3507214206443 -230.25527192008863 z"/>
<path fill="#4682b4" stroke="#4682b4" d="M-341.9533851276357 -182.1365149833517 L-341.9533851276357 -182.1365149833517 L-341.9533851276357 -302.8357380688127 L-341.9533851276357 -302.8357380688127 z"/>
<path fill="#4682b4" stroke="#4682b4" d="M-341.9533851276357 -302.8357380688127 L-341.9533851276357 -302.8357380688127 L-532.7613762486131 -302.8357380688127 L-532.7613762486131 -302.8357380688127 z"/>
<path fill="#4682b4" stroke="#4682b4" d="M-532.7613762486131 -182.1365149833517 L-532.7613762486131 -182.1365149833517 L-341.9533851276357 -182.1365149833517 L-341.9533851276357 -182.1365149833517 z"/>
<path fill="#4682b4" stroke="#4682b4" d="M-532.7613762486131 -302.8357380688127 L-532.7613762486131 -302.8357380688127 L-532.7613762486131 -182.1365149833517 L-532.7613762486131 -182.1365149833517 z"/>
<path fill="#4682b4" stroke="#4682b4" d="M-341.9533851276357 -182.13651498335165 L-341.9533851276357 -302.83573806881265 L-532.7613762486131 -302.83573806881265 L-532.7613762486131 -182.13651498335165 z"/>
<path fill="#4682b4" stroke="#4682b4" d="M-532.7613762486131 -302.83573806881265 L-341.9533851276357 -302.83573806881265 L-341.9533851276357 -182.13651498335165 L-532.7613762486131 -182.13651498335165 z"/>
<path fill="#4682b4" stroke="#4682b4" d="M-398.2241953385125 -214.67258601553817 L-398.2241953385125 -214.67258601553817 L-398.2241953385125 -337.8745837957827 L-398.2241953385125 -337.8745837957827 z"/>
<path fill="#4682b4" stroke="#4682b4" d="M-398.2241953385125 -337.8745837957827 L-398.2241953385125 -337.8745837957827 L-593.3607103218651 -337.8745837957827 L-593.3607103218651 -337.8745837957827 z"/>
<path fill="#4682b4" stroke="#4682b4" d="M-593.3607103218651 -214.67258601553817 L-593.3607103218651 -214.67258601553817 L-398.2241953385125 -214.67258601553817 L-398.2241953385125 -214.67258601553817 z"/>
<path fill="#4682b4" stroke="#4682b4" d="M-593.3607103218651 -337.8745837957827 L-593.3607103218651 -337.8745837957827 L-593.3607103218651 -214.67258601553817 L-593.3607103218651 -214.67258601553817 z"/>
<path fill="#4682b4" stroke="#4682b4" d="M-398.2241953385125 -214.67258601553814 L-398.2241953385125 -337.87458379578266 L-593.3607103218651 -337.87458379578266 L-593.3607103218651 -214.67258601553814 z"/>
<path fill="#4682b4" stroke="#4682b4" d="M-593.3607103218651 -337.87458379578266 L-398.2241953385125 -337.87458379578266 L-398.2241953385125 -214.67258601553814 L-593.3607103218651 -214.67258601553814 z"/>
<path fill="#4682b4" stroke="#4682b4" d="M-380.62942587621075 -159.95838060515047 L-380.62942587621075 -159.95838060515047 L-380.62942587621075 -349.6065472527853 L-380.62942587621075 -349.6065472527853 z"/>
<path fill="#4682b4" stroke="#4682b4" d="M-380.62942587621075 -349.6065472527853 L-380.62942587621075 -349.6065472527853 L-500.6580325033675 -349.6065472527853 L-500.6580325033675 -349.6065472527853 z"/>
<path fill="#4682b4" stroke="#4682b4" d="M-500.6580325033675 -159.95838060515047 L-500.6580325033675 -159.95838060515047 L-380.62942587621075 -159.95838060515047 L-380.62942587621075 -159.95838060515047 z"/>
<path fill="#4682b4" stroke="#4682b4" d="M-500.6580325033675 -349.6065472527853 L-500.6580325033675 -349.6065472527853 L-500.6580325033675 -159.95838060515047 L-500.6580325033675 -159.95838060515047 z"/>
<path fill="#4682b4" stroke="#4682b4" d="M-380.62942587621075 -159.95838060515044 L-380.62942587621075 -349.6065472527852 L-500.6580325033675 -349.6065472527852 L-500.6580325033675 -159.95838060515044 z"/>
<path fill="#4682b4" stroke="#4682b4" d="M-500.6580325033675 -349.6065472527852 L-380.62942587621075 -349.6065472527852 L-380.62942587621075 -159.95838060515044 L-500.6580325033675 -159.95838060515044 z"/>
<path fill="#4682b4" stroke="#4682b4" d="M-365.0467399716602 -150.94839170392962 L-365.0467399716602 -150.94839170392962 L-365.0467399716602 -340.5965583515644 L-365.0467399716602 -340.5965583515644 z"/>
<path fill="#4682b4" stroke="#4682b4" d="M-365.0467399716602 -340.5965583515644 L-365.0467399716602 -340.5965583515644 L-485.075346598817 -340.5965583515644 L-485.075346598817 -340.5965583515644 z"/>
<path fill="#4682b4" stroke="#4682b4" d="M-485.075346598817 -150.94839170392962 L-485.075346598817 -150.94839170392962 L-365.0467399716602 -150.94839170392962 L-365.0467399716602 -150.94839170392962 z"/>
<path fill="#4682b4" stroke="#4682b4" d="M-485.075346598817 -340.5965583515644 L-485.075346598817 -340.5965583515644 L-485.075346598817 -150.94839170392962 L-485.075346598817 -150.94839170392962 z"/>
<path fill="#4682b4" stroke="#4682b4" d="M-365.0467399716602 -150.9483917039296 L-365.0467399716602 -340.59655835156434 L-485.075346598817 -340.59655835156434 L-485.075346598817 -150.9483917039296 z"/>
<path fill="#4682b4" stroke="#4682b4" d="M-485.075346598817 -340.59655835156434 L-365.0467399716602 -340.59655835156434 L-365.0467399716602 -150.9483917039296 L-485.075346598817 -150.9483917039296 z"/>
<path fill="#4682b4" stroke="#4682b4" d="M732.3874146987067 869.6695994881895 L732.3874146987067 869.6695994881895 L732.3874146987067 -868.7763483128589 L732.3874146987067 -868.7763483128589 z"/>
<path fill="#4682b4" stroke="#4682b4" d="M732.3874146987067 -868.7763483128589 L732.3874146987067 -868.7763483128589 L-773.0089432859862 -868.7763483128589 L-773.0089432859862 -868.7763483128589 z"/>
<path fill="#4682b4" stroke="#4682b4" d="M-773.0089432859862 869.6695994881895 L-773.0089432859862 869.6695994881895 L732.3874146987067 869.6695994881895 L732.3874146987067 869.6695994881895 z"/>
<path fill="#4682b4" stroke="#4682b4" d="M-773.0089432859862 -868.7763483128589 L-773.0089432859862 -868.7763483128589 L-773.0089432859862 869.6695994881895 L-773.0089432859862 869.6695994881895 z"/>
<path fill="#4682b4" stroke="#4682b4" d="M732.3874146987067 869.6695994881894 L732.3874146987067 -868.7763483128588 L-773.0089432859862 -868.7763483128588 L-773.0089432859862 869.6695994881894 z"/>
<path fill="#4682b4" stroke="#4682b4" d="M-773.0089432859862 -868.7763483128588 L732.3874146987067 -868.7763483128588 L732.3874146987067 869.6695994881894 L-773.0089432859862 869.6695994881894 z"/>
</svg>