solid JSxCAD
facet normal -1 0 0
outer loop
vertex -50 50 0
vertex -50 -50 7
vertex -50 50 7
endloop
endfacet
facet normal -1 0 0
outer loop
vertex -50 20 0
vertex -50 -50 7
vertex -50 50 0
endloop
endfacet
facet normal -1 0 0
outer loop
vertex -50 -20 0
vertex -50 -50 7
vertex -50 20 0
endloop
endfacet
facet normal -1 0 0
outer loop
vertex -50 -50 7
vertex -50 -20 0
vertex -50 -50 0
endloop
endfacet
facet normal 0 1 0
outer loop
vertex 20 -20 0
vertex 50 -20 7
vertex 50 -20 0
endloop
endfacet
facet normal 0 1 0
outer loop
vertex 20 -20 0
vertex 20 -20 7
vertex 50 -20 7
endloop
endfacet
facet normal 0 1 0
outer loop
vertex -20 -20 0
vertex 20 -20 7
vertex 20 -20 0
endloop
endfacet
facet normal 0 1 0
outer loop
vertex -20 -20 0
vertex -20 -20 7
vertex 20 -20 7
endloop
endfacet
facet normal 0 1 0
outer loop
vertex -50 -20 0
vertex -20 -20 7
vertex -20 -20 0
endloop
endfacet
facet normal 0 1 0
outer loop
vertex -20 -20 7
vertex -50 -20 0
vertex -50 -20 7
endloop
endfacet
facet normal 1 0 0
outer loop
vertex 50 -50 7
vertex 50 -20 0
vertex 50 50 7
endloop
endfacet
facet normal 1 0 0
outer loop
vertex 50 -20 0
vertex 50 -50 7
vertex 50 -50 0
endloop
endfacet
facet normal 1 0 0
outer loop
vertex 50 20 0
vertex 50 50 7
vertex 50 -20 0
endloop
endfacet
facet normal 1 0 0
outer loop
vertex 50 50 7
vertex 50 20 0
vertex 50 50 0
endloop
endfacet
facet normal 0 -1 0
outer loop
vertex -50 -50 7
vertex 50 -50 0
vertex 50 -50 7
endloop
endfacet
facet normal 0 -1 0
outer loop
vertex 50 -50 0
vertex -50 -50 7
vertex -50 -50 0
endloop
endfacet
facet normal 0 1 0
outer loop
vertex -50 20 0
vertex -20 20 7
vertex -20 20 0
endloop
endfacet
facet normal 0 1 0
outer loop
vertex -20 20 7
vertex -50 20 0
vertex -50 20 7
endloop
endfacet
facet normal 0 1 0
outer loop
vertex 20 20 0
vertex 50 20 7
vertex 50 20 0
endloop
endfacet
facet normal 0 1 0
outer loop
vertex 50 20 7
vertex 20 20 0
vertex 20 20 7
endloop
endfacet
facet normal 1 0 0
outer loop
vertex -20 -20 0
vertex -20 20 7
vertex -20 -20 7
endloop
endfacet
facet normal 1 0 0
outer loop
vertex -20 20 7
vertex -20 -20 0
vertex -20 20 0
endloop
endfacet
facet normal 0 -1 0
outer loop
vertex -50 -20 7
vertex -20 -20 0
vertex -20 -20 7
endloop
endfacet
facet normal 0 -1 0
outer loop
vertex -20 -20 0
vertex -50 -20 7
vertex -50 -20 0
endloop
endfacet
facet normal 0 -1 0
outer loop
vertex 20 -20 7
vertex 50 -20 0
vertex 50 -20 7
endloop
endfacet
facet normal 0 -1 0
outer loop
vertex 50 -20 0
vertex 20 -20 7
vertex 20 -20 0
endloop
endfacet
facet normal -1 0 0
outer loop
vertex 20 20 0
vertex 20 -20 7
vertex 20 20 7
endloop
endfacet
facet normal -1 0 0
outer loop
vertex 20 -20 7
vertex 20 20 0
vertex 20 -20 0
endloop
endfacet
facet normal 0 1 0
outer loop
vertex -50 50 0
vertex 50 50 7
vertex 50 50 0
endloop
endfacet
facet normal 0 1 0
outer loop
vertex 50 50 7
vertex -50 50 0
vertex -50 50 7
endloop
endfacet
facet normal 0 -1 0
outer loop
vertex 20 20 7
vertex 50 20 0
vertex 50 20 7
endloop
endfacet
facet normal 0 -1 0
outer loop
vertex 20 20 7
vertex 20 20 0
vertex 50 20 0
endloop
endfacet
facet normal 0 -1 0
outer loop
vertex -50 20 7
vertex 20 20 0
vertex 20 20 7
endloop
endfacet
facet normal 0 -1 0
outer loop
vertex 20 20 0
vertex -50 20 7
vertex -50 20 0
endloop
endfacet
facet normal 0 0 1
outer loop
vertex 50 50 7
vertex 20 20 7
vertex 50 20 7
endloop
endfacet
facet normal 0 0 1
outer loop
vertex 50 50 7
vertex -20 20 7
vertex 20 20 7
endloop
endfacet
facet normal 0 0 1
outer loop
vertex -50 50 7
vertex -20 20 7
vertex 50 50 7
endloop
endfacet
facet normal 0 0 1
outer loop
vertex -20 20 7
vertex -50 50 7
vertex -50 20 7
endloop
endfacet
facet normal 0 0 1
outer loop
vertex 20 -20 7
vertex 50 -50 7
vertex 50 -20 7
endloop
endfacet
facet normal 0 0 1
outer loop
vertex -20 -20 7
vertex 50 -50 7
vertex 20 -20 7
endloop
endfacet
facet normal 0 0 1
outer loop
vertex -50 -20 7
vertex 50 -50 7
vertex -20 -20 7
endloop
endfacet
facet normal 0 0 1
outer loop
vertex 50 -50 7
vertex -50 -20 7
vertex -50 -50 7
endloop
endfacet
facet normal 0 0 1
outer loop
vertex 20 20 7
vertex 50 -20 7
vertex 50 20 7
endloop
endfacet
facet normal 0 0 1
outer loop
vertex 50 -20 7
vertex 20 20 7
vertex 20 -20 7
endloop
endfacet
facet normal 0 0 1
outer loop
vertex -50 20 7
vertex -20 -20 7
vertex -20 20 7
endloop
endfacet
facet normal 0 0 1
outer loop
vertex -20 -20 7
vertex -50 20 7
vertex -50 -20 7
endloop
endfacet
facet normal 0 0 -1
outer loop
vertex 50 -20 0
vertex 20 20 0
vertex 50 20 0
endloop
endfacet
facet normal 0 0 -1
outer loop
vertex 20 20 0
vertex 50 -20 0
vertex 20 -20 0
endloop
endfacet
facet normal 0 0 -1
outer loop
vertex 50 -50 0
vertex 20 -20 0
vertex 50 -20 0
endloop
endfacet
facet normal 0 0 -1
outer loop
vertex 50 -50 0
vertex -20 -20 0
vertex 20 -20 0
endloop
endfacet
facet normal 0 0 -1
outer loop
vertex 50 -50 0
vertex -50 -20 0
vertex -20 -20 0
endloop
endfacet
facet normal 0 0 -1
outer loop
vertex -50 -20 0
vertex 50 -50 0
vertex -50 -50 0
endloop
endfacet
facet normal 0 0 -1
outer loop
vertex 20 20 0
vertex 50 50 0
vertex 50 20 0
endloop
endfacet
facet normal 0 0 -1
outer loop
vertex -20 20 0
vertex 50 50 0
vertex 20 20 0
endloop
endfacet
facet normal 0 0 -1
outer loop
vertex -20 20 0
vertex -50 50 0
vertex 50 50 0
endloop
endfacet
facet normal 0 0 -1
outer loop
vertex -50 50 0
vertex -20 20 0
vertex -50 20 0
endloop
endfacet
facet normal 0 0 -1
outer loop
vertex -50 -20 0
vertex -20 20 0
vertex -20 -20 0
endloop
endfacet
facet normal 0 0 -1
outer loop
vertex -20 20 0
vertex -50 -20 0
vertex -50 20 0
endloop
endfacet
endsolid JSxCAD
