<?xml version="1.0" encoding="UTF-8"?>
<!-- Generated by jsxcad -->
<!DOCTYPE svg PUBLIC "-//W3C//DTD SVG 1.1 Tiny//EN" "http://www.w3.org/Graphics/SVG/1.1/DTD/svg11-tiny.dtd">
<svg baseProfile="tiny" height="10.200000000000006mm" width="10.000000000000007mm" viewBox="0 0 10.000000000000007 10.200000000000006" version="1.1" stroke="black" stroke-width=".1" fill="none" xmlns="http://www.w3.org/2000/svg">
<path fill="#b0e0e6" stroke="#b0e0e6" d="M0 -0.1 L0 9.9 L10 9.9 L10 -0.1 z"/>
<path fill="#b0e0e6" stroke="#b0e0e6" d="M10 -0.09999999999999681 L0 -0.09999999999999681 L0 -0.09999999999999681 L10 -0.09999999999999681 z"/>
<path fill="#b0e0e6" stroke="#b0e0e6" d="M10.000000000000004 9.9 L10.000000000000004 9.9 L10.000000000000004 -0.1 L10.000000000000004 -0.1 z"/>
<path fill="#b0e0e6" stroke="#b0e0e6" d="M3.85321 9.900000000000002 L5 9.900000000000002 L5.77894 9.900000000000002 L6.02145 9.900000000000002 L6.09932 9.900000000000002 L6.31772 9.900000000000002 L6.31772 9.900000000000002 L6.31772 9.900000000000002 L6.31772 9.900000000000002 L10 9.900000000000002 L10 9.900000000000002 L0 9.900000000000002 L0 9.900000000000002 L3.68228 9.900000000000002 L3.68228 9.900000000000002 L3.76596 9.900000000000002 L3.81758 9.900000000000002 z"/>
<path fill="#b0e0e6" stroke="#b0e0e6" d="M3.552713678800501e-15 -0.1 L3.552713678800501e-15 9.9 L3.552713678800501e-15 9.9 L3.552713678800501e-15 -0.1 z"/>
<path fill="#b0e0e6" stroke="#b0e0e6" d="M2.15831 1.01724 L1.74314 1.30621 L1.57894 1.47894 L1.39463 1.67284 L1.04612 2.03947 L0.77855 2.46875 L0.51098 2.89803 L0.3353 3.37238 L0.15961 3.84674 L0.08302 4.34675 L0.00642 4.84675 L0.03204 5.35195 L0.05766 5.85714 L0.18445 6.34683 L0.31124 6.83653 L0.53401 7.29067 L0.75678 7.74482 L1.06641 8.14483 L1.37604 8.54483 L1.75985 8.87433 L2.14366 9.20382 L2.58594 9.4493 L3.02822 9.69479 L3.51086 9.84622 L3.68228 9.9 L0 9.9 L0 -0.1 L10 -0.1 L10 9.9 L6.31772 9.9 L6.48914 9.84622 L6.97178 9.69479 L7.41406 9.4493 L7.85634 9.20382 L8.24015 8.87433 L8.62396 8.54483 L8.63307 8.53307 L8.93359 8.14483 L9.24322 7.74482 L9.46599 7.29067 L9.68876 6.83653 L9.81555 6.34683 L9.94234 5.85714 L9.96796 5.35195 L9.99358 4.84675 L9.91698 4.34675 L9.84039 3.84674 L9.6647 3.37238 L9.48902 2.89803 L9.22145 2.46875 L8.95388 2.03947 L8.60537 1.67284 L8.25686 1.30621 L7.84169 1.01724 L7.42651 0.72827 L6.96166 0.52879 L6.49682 0.3293 L6.00133 0.22748 L5.50584 0.12565 L5 0.12565 L4.49416 0.12565 L3.99867 0.22748 L3.50318 0.3293 L3.03834 0.52879 L2.57349 0.72827 z"/>
<path fill="#b0e0e6" stroke="#b0e0e6" d="M3.028220333960911 9.694788935589619 L3.028220333960911 9.694788935589619 L3.6822795773487282 9.900001347086995 L3.6822795773487282 9.900001347086995 L3.5108605404989537 9.846218277305285 z"/>
<path fill="#b0e0e6" stroke="#b0e0e6" d="M6.9717796660390885 9.69478893558962 L6.9717796660390885 9.69478893558962 L6.489139459501046 9.846218277305287 L6.317720422651272 9.900001347086997 L6.317720422651272 9.900001347086997 L6.317720422651272 9.900001347086997 L6.317720422651272 9.900001347086997 z"/>
<path fill="#b0e0e6" stroke="#b0e0e6" d="M6.971779429714375 9.694788972542158 L6.971779429714375 9.694788972542158 L7.856339067752883 9.203818320412495 L7.856339067752883 9.203818320412495 L7.414061370344273 9.449302468887351 z"/>
<path fill="#b0e0e6" stroke="#b0e0e6" d="M2.1436609322471187 9.203818320412491 L2.1436609322471187 9.203818320412491 L3.0282205702856264 9.694788972542154 L3.0282205702856264 9.694788972542154 L2.5859386296557285 9.44930246888735 z"/>
<path fill="#b0e0e6" stroke="#b0e0e6" d="M8.62396468571559 8.544833627013844 L8.62396468571559 8.544833627013844 L9.243220830084399 7.744820642533152 L9.243220830084399 7.744820642533152 L8.933590337707198 8.14483026140483 L8.633070256890084 8.533070198847728 z"/>
<path fill="#b0e0e6" stroke="#b0e0e6" d="M8.623963941244922 8.544834591000813 L8.623963941244922 8.544834591000813 L8.24014903716985 8.87432887843712 L7.8563390754363995 9.203818923012316 L7.8563390754363995 9.203818923012316 z"/>
<path fill="#b0e0e6" stroke="#b0e0e6" d="M2.1436609245636036 9.203818923012312 L2.1436609245636036 9.203818923012312 L1.7598509628301529 8.874328878437117 L1.3760360587550797 8.544834591000809 L1.3760360587550797 8.544834591000809 z"/>
<path fill="#b0e0e6" stroke="#b0e0e6" d="M1.0461207345403172 2.039470698232637 L1.0461207345403172 2.039470698232637 L1.3946295801363888 1.6728396008898767 L1.5789425713522909 1.4789424442526151 L1.7431384257324603 1.3062085035471165 L1.7431384257324603 1.3062085035471165 z"/>
<path fill="#b0e0e6" stroke="#b0e0e6" d="M0.7567791699156047 7.744820642533148 L0.7567791699156047 7.744820642533148 L1.3760353142844133 8.544833627013839 L1.3760353142844133 8.544833627013839 L1.0664096622928065 8.144830261404826 z"/>
<path fill="#b0e0e6" stroke="#b0e0e6" d="M0.5109773807627612 2.8980290299410467 L0.5109773807627612 2.8980290299410467 L0.15961300750634425 3.846741113858039 L0.15961300750634425 3.846741113858039 L0.33529742567045273 3.3723790465730294 z"/>
<path fill="#b0e0e6" stroke="#b0e0e6" d="M0.5109777168408223 2.8980285768960026 L0.5109777168408223 2.8980285768960026 L0.7785493516481482 2.4687495958792005 L1.046120986455474 2.0394706148623984 L1.046120986455474 2.0394706148623984 z"/>
<path fill="#b0e0e6" stroke="#b0e0e6" d="M0.31124094449272327 6.836529536704201 L0.31124094449272327 6.836529536704201 L0.7567789418121523 7.744820519065919 L0.7567789418121523 7.744820519065919 L0.5340079662130957 7.290670997620104 z"/>
<path fill="#b0e0e6" stroke="#b0e0e6" d="M0.05765875018542153 5.857140323599414 L0.05765875018542153 5.857140323599414 L0.3112402872661073 6.836529925621651 L0.3112402872661073 6.836529925621651 L0.18444830547085803 6.346830438743992 z"/>
<path fill="#b0e0e6" stroke="#b0e0e6" d="M0.0064181443404405705 4.846749715723411 L0.0064181443404405705 4.846749715723411 L0.08301539156365824 4.346749294013519 L0.15961390629877278 3.8467405984229606 L0.15961390629877278 3.8467405984229606 z"/>
<path fill="#b0e0e6" stroke="#b0e0e6" d="M0.006417260432084035 4.8467501389351595 L0.006417260432084035 4.8467501389351595 L0.0576584387932249 5.857140079175447 L0.0576584387932249 5.857140079175447 L0.03203810253345945 5.351950096228612 z"/>
<path fill="#b0e0e6" stroke="#b0e0e6" d="M9.840386093701234 3.8467405984229597 L9.840386093701234 3.8467405984229597 L9.916984608436348 4.346749294013518 L9.993581855659565 4.84674971572341 L9.993581855659565 4.84674971572341 z"/>
<path fill="#b0e0e6" stroke="#b0e0e6" d="M7.426511383337822 0.7282680125043175 L7.426511383337822 0.7282680125043175 L7.8416895975891485 1.0172405781594454 L8.25686107531421 1.306208455053913 L8.25686107531421 1.306208455053913 z"/>
<path fill="#b0e0e6" stroke="#b0e0e6" d="M9.942341561206781 5.857140079175447 L9.942341561206781 5.857140079175447 L9.993582739567922 4.84675013893516 L9.993582739567922 4.84675013893516 L9.967961897466546 5.351950096228612 z"/>
<path fill="#b0e0e6" stroke="#b0e0e6" d="M9.840386992493661 3.8467411138580365 L9.840386992493661 3.8467411138580365 L9.489022619237245 2.898029029941044 L9.489022619237245 2.898029029941044 L9.664702574329553 3.3723790465730272 z"/>
<path fill="#b0e0e6" stroke="#b0e0e6" d="M9.942341249814584 5.857140323599416 L9.942341249814584 5.857140323599416 L9.815551694529148 6.346830438743994 L9.688759712733898 6.836529925621653 L9.688759712733898 6.836529925621653 z"/>
<path fill="#b0e0e6" stroke="#b0e0e6" d="M8.95387901354453 2.039470614862395 L8.95387901354453 2.039470614862395 L9.221450648351857 2.4687495958791974 L9.489022283159182 2.8980285768959995 L9.489022283159182 2.8980285768959995 z"/>
<path fill="#b0e0e6" stroke="#b0e0e6" d="M9.243221058187853 7.744820519065922 L9.243221058187853 7.744820519065922 L9.688759055507282 6.8365295367042025 L9.688759055507282 6.8365295367042025 L9.46599203378691 7.290670997620107 z"/>
<path fill="#b0e0e6" stroke="#b0e0e6" d="M8.953879265459685 2.0394706982326336 L8.953879265459685 2.0394706982326336 L8.256861574267543 1.3062085035471123 L8.256861574267543 1.3062085035471123 L8.605370419863615 1.6728396008898734 z"/>
<path fill="#b0e0e6" stroke="#b0e0e6" d="M6.496817970649549 0.3293047289457578 L6.496817970649549 0.3293047289457578 L6.961662118543289 0.5287850632103464 L7.426511087307688 0.7282674662734663 L7.426511087307688 0.7282674662734663 z"/>
<path fill="#b0e0e6" stroke="#b0e0e6" d="M5.505839398175495 0.12565292851195003 L5.505839398175495 0.12565292851195003 L6.001330229578444 0.2274788828583549 L6.496819089202116 0.3293044319938177 L6.496819089202116 0.3293044319938177 z"/>
<path fill="#b0e0e6" stroke="#b0e0e6" d="M4.494159999999999 0.1256533830405271 L4.494159999999999 0.1256533830405271 L4.999999999999999 0.1256533830405275 L5.505839999999999 0.12565338304052795 L5.505839999999999 0.12565338304052795 z"/>
<path fill="#b0e0e6" stroke="#b0e0e6" d="M4.494160601824504 0.12565292851195156 L4.494160601824504 0.12565292851195156 L3.503180910797883 0.32930443199381965 L3.503180910797883 0.32930443199381965 L3.9986697704215564 0.22747888285835652 z"/>
<path fill="#b0e0e6" stroke="#b0e0e6" d="M2.573488912692312 0.7282674662734681 L2.573488912692312 0.7282674662734681 L3.038337881456711 0.528785063210349 L3.5031820293504508 0.32930472894576146 L3.5031820293504508 0.32930472894576146 z"/>
<path fill="#b0e0e6" stroke="#b0e0e6" d="M1.7431389246857896 1.3062084550539166 L1.7431389246857896 1.3062084550539166 L2.158310402410853 1.017240578159449 L2.57348861666218 0.7282680125043209 L2.57348861666218 0.7282680125043209 z"/>
<path fill="#b0e0e6" stroke="#b0e0e6" d="M3.02822 9.69479 L2.14366 9.20382 L1.37604 8.54483 L0.75678 7.74482 L0.31124 6.83653 L0.05766 5.85714 L0.00642 4.84675 L0.15961 3.84674 L0.51098 2.89803 L1.04612 2.03947 L1.74314 1.30621 L2.57349 0.72827 L3.50318 0.3293 L4.49416 0.12565 L5.50584 0.12565 L6.49682 0.3293 L7.42651 0.72827 L8.25686 1.30621 L8.95388 2.03947 L9.48902 2.89803 L9.84039 3.84674 L9.99358 4.84675 L9.94234 5.85714 L9.68876 6.83653 L9.24322 7.74482 L8.62396 8.54483 L7.85634 9.20382 L6.97178 9.69479 L6.31772 9.9 L6.09932 9.9 L6.02145 9.9 L5.77894 9.9 L5 9.9 L3.85321 9.9 L3.81758 9.9 L3.76596 9.9 L3.68228 9.9 z"/>
<path fill="#b0e0e6" stroke="#b0e0e6" d="M3.02822 9.69479 L2.14366 9.20382 L1.37604 8.54483 L0.75678 7.74482 L0.31124 6.83653 L0.05766 5.85714 L0.00642 4.84675 L0.15961 3.84674 L0.51098 2.89803 L1.04612 2.03947 L1.74314 1.30621 L2.57349 0.72827 L3.50318 0.3293 L4.49416 0.12565 L5.50584 0.12565 L6.49682 0.3293 L7.42651 0.72827 L8.25686 1.30621 L8.95388 2.03947 L9.48902 2.89803 L9.84039 3.84674 L9.99358 4.84675 L9.94234 5.85714 L9.68876 6.83653 L9.24322 7.74482 L8.62396 8.54483 L7.85634 9.20382 L6.97178 9.69479 L6.00649 9.99765 L5 10.1 L3.99351 9.99765 z"/>
<path fill="#b0e0e6" stroke="#b0e0e6" d="M6.006489997051149 9.99764997100158 L6.006489997051149 9.99764997100158 L5 10.100000000000003 L5 10.100000000000003 z"/>
<path fill="#b0e0e6" stroke="#b0e0e6" d="M3.9935100029488506 9.99764997100158 L3.9935100029488506 9.99764997100158 L4.999999999999999 10.100000000000001 L4.999999999999999 10.100000000000001 z"/>
<path fill="#b0e0e6" stroke="#b0e0e6" d="M9.243220830084399 7.744820642533152 L9.243220830084399 7.744820642533152 L8.62396468571559 8.544833627013844 L8.62396468571559 8.544833627013844 z"/>
<path fill="#b0e0e6" stroke="#b0e0e6" d="M7.8563390754363995 9.203818923012316 L7.8563390754363995 9.203818923012316 L8.623963941244922 8.544834591000813 L8.623963941244922 8.544834591000813 z"/>
<path fill="#b0e0e6" stroke="#b0e0e6" d="M9.688759055507282 6.8365295367042025 L9.688759055507282 6.8365295367042025 L9.243221058187853 7.744820519065922 L9.243221058187853 7.744820519065922 z"/>
<path fill="#b0e0e6" stroke="#b0e0e6" d="M6.971779429714375 9.694788972542158 L6.971779429714375 9.694788972542158 L7.856339067752883 9.203818320412495 L7.856339067752883 9.203818320412495 z"/>
<path fill="#b0e0e6" stroke="#b0e0e6" d="M9.942341249814584 5.857140323599416 L9.942341249814584 5.857140323599416 L9.688759712733898 6.836529925621653 L9.688759712733898 6.836529925621653 z"/>
<path fill="#b0e0e6" stroke="#b0e0e6" d="M6.9717796660390885 9.69478893558962 L6.9717796660390885 9.69478893558962 L6.006490149145798 9.997650475362029 L6.006490149145798 9.997650475362029 z"/>
<path fill="#b0e0e6" stroke="#b0e0e6" d="M9.993581855659565 4.84674971572341 L9.993581855659565 4.84674971572341 L9.840386093701234 3.8467405984229597 L9.840386093701234 3.8467405984229597 z"/>
<path fill="#b0e0e6" stroke="#b0e0e6" d="M9.489022619237245 2.898029029941044 L9.489022619237245 2.898029029941044 L9.840386992493661 3.8467411138580365 L9.840386992493661 3.8467411138580365 z"/>
<path fill="#b0e0e6" stroke="#b0e0e6" d="M9.489022283159182 2.8980285768959995 L9.489022283159182 2.8980285768959995 L8.95387901354453 2.039470614862395 L8.95387901354453 2.039470614862395 z"/>
<path fill="#b0e0e6" stroke="#b0e0e6" d="M9.993582739567922 4.84675013893516 L9.993582739567922 4.84675013893516 L9.942341561206781 5.857140079175447 L9.942341561206781 5.857140079175447 z"/>
<path fill="#b0e0e6" stroke="#b0e0e6" d="M7.426511383337822 0.7282680125043175 L7.426511383337822 0.7282680125043175 L8.25686107531421 1.306208455053913 L8.25686107531421 1.306208455053913 z"/>
<path fill="#b0e0e6" stroke="#b0e0e6" d="M8.256861574267543 1.3062085035471123 L8.256861574267543 1.3062085035471123 L8.953879265459685 2.0394706982326336 L8.953879265459685 2.0394706982326336 z"/>
<path fill="#b0e0e6" stroke="#b0e0e6" d="M5.505839398175495 0.12565292851195003 L5.505839398175495 0.12565292851195003 L6.496819089202116 0.3293044319938177 L6.496819089202116 0.3293044319938177 z"/>
<path fill="#b0e0e6" stroke="#b0e0e6" d="M6.496817970649549 0.3293047289457578 L6.496817970649549 0.3293047289457578 L7.426511087307688 0.7282674662734663 L7.426511087307688 0.7282674662734663 z"/>
<path fill="#b0e0e6" stroke="#b0e0e6" d="M3.5031820293504508 0.32930472894576146 L3.5031820293504508 0.32930472894576146 L2.573488912692312 0.7282674662734681 L2.573488912692312 0.7282674662734681 z"/>
<path fill="#b0e0e6" stroke="#b0e0e6" d="M4.494160601824504 0.12565292851195156 L4.494160601824504 0.12565292851195156 L3.503180910797883 0.32930443199381965 L3.503180910797883 0.32930443199381965 z"/>
<path fill="#b0e0e6" stroke="#b0e0e6" d="M4.494159999999999 0.1256533830405271 L4.494159999999999 0.1256533830405271 L5.505839999999999 0.12565338304052795 L5.505839999999999 0.12565338304052795 z"/>
<path fill="#b0e0e6" stroke="#b0e0e6" d="M1.0461207345403172 2.039470698232637 L1.0461207345403172 2.039470698232637 L1.7431384257324603 1.3062085035471165 L1.7431384257324603 1.3062085035471165 z"/>
<path fill="#b0e0e6" stroke="#b0e0e6" d="M1.7431389246857896 1.3062084550539166 L1.7431389246857896 1.3062084550539166 L2.57348861666218 0.7282680125043209 L2.57348861666218 0.7282680125043209 z"/>
<path fill="#b0e0e6" stroke="#b0e0e6" d="M0.5109777168408223 2.8980285768960026 L0.5109777168408223 2.8980285768960026 L1.046120986455474 2.0394706148623984 L1.046120986455474 2.0394706148623984 z"/>
<path fill="#b0e0e6" stroke="#b0e0e6" d="M0.0576584387932249 5.857140079175447 L0.0576584387932249 5.857140079175447 L0.006417260432084035 4.8467501389351595 L0.006417260432084035 4.8467501389351595 z"/>
<path fill="#b0e0e6" stroke="#b0e0e6" d="M0.15961390629877278 3.8467405984229606 L0.15961390629877278 3.8467405984229606 L0.0064181443404405705 4.846749715723411 L0.0064181443404405705 4.846749715723411 z"/>
<path fill="#b0e0e6" stroke="#b0e0e6" d="M0.15961300750634425 3.846741113858039 L0.15961300750634425 3.846741113858039 L0.5109773807627612 2.8980290299410467 L0.5109773807627612 2.8980290299410467 z"/>
<path fill="#b0e0e6" stroke="#b0e0e6" d="M0.7567789418121523 7.744820519065919 L0.7567789418121523 7.744820519065919 L0.31124094449272327 6.836529536704201 L0.31124094449272327 6.836529536704201 z"/>
<path fill="#b0e0e6" stroke="#b0e0e6" d="M0.3112402872661073 6.836529925621651 L0.3112402872661073 6.836529925621651 L0.05765875018542153 5.857140323599414 L0.05765875018542153 5.857140323599414 z"/>
<path fill="#b0e0e6" stroke="#b0e0e6" d="M1.3760353142844133 8.544833627013839 L1.3760353142844133 8.544833627013839 L0.7567791699156047 7.744820642533148 L0.7567791699156047 7.744820642533148 z"/>
<path fill="#b0e0e6" stroke="#b0e0e6" d="M2.1436609245636036 9.203818923012312 L2.1436609245636036 9.203818923012312 L1.3760360587550797 8.544834591000809 L1.3760360587550797 8.544834591000809 z"/>
<path fill="#b0e0e6" stroke="#b0e0e6" d="M3.028220333960911 9.694788935589619 L3.028220333960911 9.694788935589619 L3.993509850854202 9.997650475362025 L3.993509850854202 9.997650475362025 z"/>
<path fill="#b0e0e6" stroke="#b0e0e6" d="M3.0282205702856264 9.694788972542154 L3.0282205702856264 9.694788972542154 L2.1436609322471187 9.203818320412491 L2.1436609322471187 9.203818320412491 z"/>
<path fill="#b0e0e6" stroke="#b0e0e6" d="M2.14366 9.20382 L3.02822 9.69479 L3.99351 9.99765 L5 10.1 L6.00649 9.99765 L6.97178 9.69479 L7.85634 9.20382 L8.62396 8.54483 L9.24322 7.74482 L9.68876 6.83653 L9.94234 5.85714 L9.99358 4.84675 L9.84039 3.84674 L9.48902 2.89803 L8.95388 2.03947 L8.25686 1.30621 L7.42651 0.72827 L6.49682 0.3293 L5.50584 0.12565 L4.49416 0.12565 L3.50318 0.3293 L2.57349 0.72827 L1.74314 1.30621 L1.04612 2.03947 L0.51098 2.89803 L0.15961 3.84674 L0.00642 4.84675 L0.05766 5.85714 L0.31124 6.83653 L0.75678 7.74482 L1.37604 8.54483 z"/>
</svg>