<?xml version="1.0" encoding="UTF-8"?>
<!-- Generated by jsxcad -->
<!DOCTYPE svg PUBLIC "-//W3C//DTD SVG 1.1 Tiny//EN" "http://www.w3.org/Graphics/SVG/1.1/DTD/svg11-tiny.dtd">
<svg baseProfile="tiny" height="9.974346616959483mm" width="9.987165071710535mm" viewBox="-4.993582535855268 -4.97434661695948 4.993582535855268 5.0000000000000036" version="1.1" stroke="black" stroke-width=".1" fill="none" xmlns="http://www.w3.org/2000/svg">
<path fill="#000000" stroke="#000000" d="M-1.971779275566589 14.569135675060638 L-1.971779275566589 14.569135675060638 L-1.0064926004432921 14.871996323221957 L-1.0064926004432921 14.871996323221957 z"/>
<path fill="#000000" stroke="#000000" d="M-2.8563410754739578 14.078163822995867 L-2.8563410754739578 14.078163822995867 L-1.9717792755665893 14.569135675060638 L-1.9717792755665893 14.569135675060638 z"/>
<path fill="#000000" stroke="#000000" d="M-3.6239639361455955 13.41918121233792 L-3.6239639361455955 13.41918121233792 L-2.8563410754739578 14.078163822995867 L-2.8563410754739578 14.078163822995867 z"/>
<path fill="#000000" stroke="#000000" d="M-4.243221287473753 12.619166668594296 L-4.243221287473753 12.619166668594296 L-3.6239639361455978 13.419181212337916 L-3.6239639361455978 13.419181212337916 z"/>
<path fill="#000000" stroke="#000000" d="M-4.688760660735402 11.710872881183585 L-4.688760660735402 11.710872881183585 L-4.243221287473753 12.619166668594296 L-4.243221287473753 12.619166668594296 z"/>
<path fill="#000000" stroke="#000000" d="M-4.942341621640557 10.731485504482364 L-4.942341621640557 10.731485504482364 L-4.688760660735402 11.710872881183585 L-4.688760660735402 11.710872881183585 z"/>
<path fill="#000000" stroke="#000000" d="M-4.4890226978537076 7.772375859171311 L-4.4890226978537076 7.772375859171311 L-4.84038559433102 8.721083955665877 L-4.84038559433102 8.721083955665877 z"/>
<path fill="#000000" stroke="#000000" d="M-4.993582535855264 9.721100772765917 L-4.993582535855264 9.721100772765917 L-4.942341621640557 10.731485504482364 L-4.942341621640557 10.731485504482364 z"/>
<path fill="#000000" stroke="#000000" d="M-4.84038559433102 8.721083955665877 L-4.84038559433102 8.721083955665877 L-4.993582535855263 9.721100772765919 L-4.993582535855263 9.721100772765919 z"/>
<path fill="#000000" stroke="#000000" d="M-3.9538786846884912 6.9138167042211665 L-3.9538786846884912 6.9138167042211665 L-4.4890226978537076 7.77237585917131 L-4.4890226978537076 7.77237585917131 z"/>
<path fill="#000000" stroke="#000000" d="M-3.2568624136111097 6.180556003495527 L-3.2568624136111097 6.180556003495527 L-3.9538786846884917 6.913816704221167 L-3.9538786846884917 6.913816704221167 z"/>
<path fill="#000000" stroke="#000000" d="M-2.426509812655402 5.6026135362365705 L-2.426509812655402 5.6026135362365705 L-3.2568624136111097 6.180556003495527 L-3.2568624136111097 6.180556003495527 z"/>
<path fill="#000000" stroke="#000000" d="M-0.5058416099371582 5.000000000000006 L-0.5058416099371582 5.000000000000006 L-1.4968156148667882 5.203650334959238 L-1.4968156148667882 5.203650334959238 z"/>
<path fill="#000000" stroke="#000000" d="M0.5058416099371632 5.000000000000007 L0.5058416099371632 5.000000000000007 L-0.5058416099371582 5.000000000000007 L-0.5058416099371582 5.000000000000007 z"/>
<path fill="#000000" stroke="#000000" d="M-1.4968156148667882 5.203650334959238 L-1.4968156148667882 5.203650334959238 L-2.426509812655402 5.6026135362365705 L-2.426509812655402 5.6026135362365705 z"/>
<path fill="#000000" stroke="#000000" d="M1.4968156148667906 5.203650334959238 L1.4968156148667906 5.203650334959238 L0.5058416099371632 5.000000000000007 L0.5058416099371632 5.000000000000007 z"/>
<path fill="#000000" stroke="#000000" d="M2.4265098126554063 5.602613536236573 L2.4265098126554063 5.602613536236573 L1.4968156148667906 5.203650334959238 L1.4968156148667906 5.203650334959238 z"/>
<path fill="#000000" stroke="#000000" d="M3.2568624136111115 6.1805560034955285 L3.2568624136111115 6.1805560034955285 L2.4265098126554063 5.602613536236573 L2.4265098126554063 5.602613536236573 z"/>
<path fill="#000000" stroke="#000000" d="M3.953878684688492 6.913816704221168 L3.953878684688492 6.913816704221168 L3.256862413611111 6.180556003495528 L3.256862413611111 6.180556003495528 z"/>
<path fill="#000000" stroke="#000000" d="M4.942341621640557 10.731485504482364 L4.942341621640557 10.731485504482364 L4.993582535855264 9.721100772765919 L4.993582535855264 9.721100772765919 z"/>
<path fill="#000000" stroke="#000000" d="M4.489022697853708 7.772375859171312 L4.489022697853708 7.772375859171312 L3.9538786846884926 6.913816704221168 L3.9538786846884926 6.913816704221168 z"/>
<path fill="#000000" stroke="#000000" d="M4.840385594331021 8.721083955665879 L4.840385594331021 8.721083955665879 L4.489022697853708 7.772375859171311 L4.489022697853708 7.772375859171311 z"/>
<path fill="#000000" stroke="#000000" d="M4.993582535855263 9.721100772765919 L4.993582535855263 9.721100772765919 L4.840385594331021 8.721083955665879 L4.840385594331021 8.721083955665879 z"/>
<path fill="#000000" stroke="#000000" d="M1.0064926004433004 14.871996323221955 L1.0064926004433004 14.871996323221955 L1.9717792755665924 14.569135675060636 L1.9717792755665924 14.569135675060636 z"/>
<path fill="#000000" stroke="#000000" d="M4.688760660735402 11.710872881183583 L4.688760660735402 11.710872881183583 L4.942341621640557 10.731485504482364 L4.942341621640557 10.731485504482364 z"/>
<path fill="#000000" stroke="#000000" d="M1.9717792755665926 14.569135675060636 L1.9717792755665926 14.569135675060636 L2.8563410754739604 14.078163822995865 L2.8563410754739604 14.078163822995865 z"/>
<path fill="#000000" stroke="#000000" d="M4.243221287473754 12.619166668594294 L4.243221287473754 12.619166668594294 L4.688760660735402 11.710872881183583 L4.688760660735402 11.710872881183583 z"/>
<path fill="#000000" stroke="#000000" d="M3.623963936145601 13.419181212337914 L3.623963936145601 13.419181212337914 L4.243221287473754 12.619166668594294 L4.243221287473754 12.619166668594294 z"/>
<path fill="#000000" stroke="#000000" d="M2.8563410754739604 14.078163822995865 L2.8563410754739604 14.078163822995865 L3.623963936145598 13.419181212337916 L3.623963936145598 13.419181212337916 z"/>
<path fill="#000000" stroke="#000000" d="M3.0616169978683826e-16 14.974346616959483 L3.0616169978683826e-16 14.974346616959483 L1.0064926004433004 14.871996323221955 L1.0064926004433004 14.871996323221955 z"/>
<path fill="#000000" stroke="#000000" d="M-1.0064926004432921 14.871996323221957 L-1.0064926004432921 14.871996323221957 L3.0616169978683826e-16 14.974346616959481 L3.0616169978683826e-16 14.974346616959481 z"/>
<path fill="#000000" stroke="#000000" d="M-1.9717792755665895 14.569135675060638 L-1.0064926004432924 14.871996323221957 L3.061616997868383e-16 14.974346616959483 L1.0064926004433006 14.871996323221955 L1.9717792755665928 14.569135675060636 L2.856341075473961 14.078163822995865 L3.623963936145599 13.419181212337916 L4.243221287473754 12.619166668594296 L4.688760660735402 11.710872881183585 L4.942341621640557 10.731485504482366 L4.993582535855264 9.72110077276592 L4.840385594331022 8.72108395566588 L4.489022697853709 7.772375859171313 L3.953878684688493 6.913816704221169 L3.256862413611112 6.1805560034955285 L2.4265098126554068 5.602613536236574 L1.4968156148667908 5.203650334959239 L0.5058416099371633 5.000000000000008 L-0.5058416099371583 5.000000000000007 L-1.4968156148667884 5.203650334959239 L-2.4265098126554023 5.602613536236571 L-3.25686241361111 6.180556003495528 L-3.953878684688492 6.913816704221168 L-4.489022697853708 7.772375859171312 L-4.840385594331021 8.721083955665879 L-4.993582535855264 9.721100772765919 L-4.942341621640557 10.731485504482366 L-4.688760660735402 11.710872881183587 L-4.243221287473753 12.619166668594296 L-3.6239639361455964 13.419181212337918 L-2.856341075473958 14.078163822995867 z"/>
<path fill="#000000" stroke="#000000" d="M-1.9717792755665895 14.569135675060638 L-2.856341075473958 14.078163822995867 L-3.6239639361455964 13.419181212337918 L-4.243221287473753 12.619166668594296 L-4.688760660735402 11.710872881183587 L-4.942341621640557 10.731485504482366 L-4.993582535855264 9.721100772765919 L-4.840385594331021 8.721083955665879 L-4.489022697853708 7.772375859171312 L-3.953878684688492 6.913816704221168 L-3.25686241361111 6.180556003495528 L-2.4265098126554023 5.602613536236571 L-1.4968156148667884 5.203650334959239 L-0.5058416099371583 5.000000000000007 L0.5058416099371633 5.000000000000008 L1.4968156148667908 5.203650334959239 L2.4265098126554068 5.602613536236574 L3.256862413611112 6.1805560034955285 L3.953878684688493 6.913816704221169 L4.489022697853709 7.772375859171313 L4.840385594331022 8.72108395566588 L4.993582535855264 9.72110077276592 L4.942341621640557 10.731485504482366 L4.688760660735402 11.710872881183585 L4.243221287473754 12.619166668594296 L3.623963936145599 13.419181212337916 L2.856341075473961 14.078163822995865 L1.9717792755665928 14.569135675060636 L1.0064926004433006 14.871996323221955 L3.061616997868383e-16 14.974346616959483 L-1.0064926004432924 14.871996323221957 z"/>
</svg>