<?xml version="1.0" encoding="UTF-8"?>
<!-- Generated by jsxcad -->
<!DOCTYPE svg PUBLIC "-//W3C//DTD SVG 1.1 Tiny//EN" "http://www.w3.org/Graphics/SVG/1.1/DTD/svg11-tiny.dtd">
<svg baseProfile="tiny" height="20mm" width="141.42857142857142mm" viewBox="-70.71428571428571 -10 70.71428571428571 10" version="1.1" stroke="black" stroke-width=".1" fill="none" xmlns="http://www.w3.org/2000/svg">
<path fill="none" stroke="#000000" d="M-70.71428571428571 10 L-70.71428571428571 25"/>
<path fill="none" stroke="#000000" d="M-70.71428571428571 10 L-60.714285714285715 25"/>
<path fill="none" stroke="#000000" d="M-60.714285714285715 10 L-60.714285714285715 25"/>
<path fill="none" stroke="#000000" d=""/>
<path fill="none" stroke="#000000" d="M-52.14285714285714 15 L-53.57142857142857 15.714285714285715 L-55 17.142857142857142 L-55.714285714285715 19.285714285714285 L-55.714285714285715 20.714285714285715 L-55 22.857142857142858 L-53.57142857142857 24.285714285714285 L-52.14285714285714 25 L-50 25 L-48.57142857142857 24.285714285714285 L-47.14285714285714 22.857142857142858 L-46.42857142857143 20.714285714285715 L-46.42857142857143 19.285714285714285 L-47.14285714285714 17.142857142857142 L-48.57142857142857 15.714285714285715 L-50 15 L-52.14285714285714 15"/>
<path fill="none" stroke="#000000" d=""/>
<path fill="none" stroke="#000000" d=""/>
<path fill="none" stroke="#000000" d="M-20 13.571428571428573 L-20.714285714285715 12.142857142857144 L-22.142857142857146 10.714285714285715 L-23.57142857142857 10 L-26.428571428571423 10 L-27.85714285714286 10.714285714285715 L-29.285714285714292 12.142857142857144 L-30 13.571428571428573 L-30.714285714285715 15.714285714285715 L-30.714285714285715 19.285714285714285 L-30 21.42857142857143 L-29.285714285714292 22.857142857142858 L-27.85714285714286 24.285714285714285 L-26.428571428571423 25 L-23.57142857142857 25 L-22.142857142857146 24.285714285714285 L-20.714285714285715 22.857142857142858 L-20 21.42857142857143 L-20 19.285714285714285"/>
<path fill="none" stroke="#000000" d="M-23.57142857142857 19.285714285714285 L-20 19.285714285714285"/>
<path fill="none" stroke="#000000" d=""/>
<path fill="none" stroke="#000000" d="M-15.714285714285715 19.285714285714285 L-7.142857142857153 19.285714285714285 L-7.142857142857153 17.857142857142858 L-7.857142857142861 16.42857142857143 L-8.57142857142857 15.714285714285715 L-10 15 L-12.142857142857146 15 L-13.57142857142857 15.714285714285715 L-15 17.142857142857142 L-15.714285714285715 19.285714285714285 L-15.714285714285715 20.714285714285715 L-15 22.857142857142858 L-13.57142857142857 24.285714285714285 L-12.142857142857146 25 L-10 25 L-8.57142857142857 24.285714285714285 L-7.142857142857153 22.857142857142858"/>
<path fill="none" stroke="#000000" d=""/>
<path fill="none" stroke="#000000" d="M0.7142857142857082 15 L-0.7142857142857082 15.714285714285715 L-2.142857142857153 17.142857142857142 L-2.857142857142861 19.285714285714285 L-2.857142857142861 20.714285714285715 L-2.142857142857153 22.857142857142858 L-0.7142857142857082 24.285714285714285 L0.7142857142857082 25 L2.857142857142847 25 L4.285714285714292 24.285714285714285 L5.714285714285708 22.857142857142858 L6.428571428571431 20.714285714285715 L6.428571428571431 19.285714285714285 L5.714285714285708 17.142857142857142 L4.285714285714292 15.714285714285715 L2.857142857142847 15 L0.7142857142857082 15"/>
<path fill="none" stroke="#000000" d=""/>
<path fill="none" stroke="#000000" d="M11.42857142857143 15 L11.42857142857143 25"/>
<path fill="none" stroke="#000000" d="M11.42857142857143 17.857142857142858 L13.57142857142857 15.714285714285715 L14.999999999999986 15 L17.14285714285714 15 L18.57142857142857 15.714285714285715 L19.285714285714278 17.857142857142858 L19.285714285714278 25"/>
<path fill="none" stroke="#000000" d="M19.285714285714278 17.857142857142858 L21.42857142857143 15.714285714285715 L22.857142857142847 15 L24.999999999999986 15 L26.42857142857143 15.714285714285715 L27.14285714285714 17.857142857142858 L27.14285714285714 25"/>
<path fill="none" stroke="#000000" d=""/>
<path fill="none" stroke="#000000" d="M32.14285714285714 19.285714285714285 L40.71428571428571 19.285714285714285 L40.71428571428571 17.857142857142858 L39.999999999999986 16.42857142857143 L39.28571428571428 15.714285714285715 L37.85714285714285 15 L35.71428571428572 15 L34.28571428571428 15.714285714285715 L32.85714285714285 17.142857142857142 L32.14285714285714 19.285714285714285 L32.14285714285714 20.714285714285715 L32.85714285714285 22.857142857142858 L34.28571428571428 24.285714285714285 L35.71428571428572 25 L37.85714285714285 25 L39.28571428571428 24.285714285714285 L40.71428571428571 22.857142857142858"/>
<path fill="none" stroke="#000000" d=""/>
<path fill="none" stroke="#000000" d="M46.42857142857143 10 L46.42857142857143 22.142857142857142 L47.14285714285714 24.285714285714285 L48.57142857142857 25 L49.999999999999986 25"/>
<path fill="none" stroke="#000000" d="M44.28571428571428 15 L49.28571428571428 15"/>
<path fill="none" stroke="#000000" d=""/>
<path fill="none" stroke="#000000" d="M54.28571428571428 15 L54.28571428571428 25"/>
<path fill="none" stroke="#000000" d="M54.28571428571428 19.285714285714285 L54.999999999999986 17.142857142857142 L56.42857142857143 15.714285714285715 L57.85714285714285 15 L59.999999999999986 15"/>
<path fill="none" stroke="#000000" d=""/>
<path fill="none" stroke="#000000" d="M62.14285714285715 15 L66.42857142857143 25"/>
<path fill="none" stroke="#000000" d="M70.71428571428571 15 L66.42857142857143 25 L64.99999999999999 27.857142857142858 L63.57142857142857 29.285714285714285 L62.14285714285715 30 L61.42857142857143 30"/>
<path fill="none" stroke="#000000" d=""/>
</svg>