<?xml version="1.0" encoding="UTF-8"?>
<!-- Generated by jsxcad -->
<!DOCTYPE svg PUBLIC "-//W3C//DTD SVG 1.1 Tiny//EN" "http://www.w3.org/Graphics/SVG/1.1/DTD/svg11-tiny.dtd">
<svg viewBox="-250 -250 500 500" width="500" height="500" xmlns="http://www.w3.org/2000/svg"><path d="M148.56160905973584,-161.38921583983793L-145.37596090504354,-77.10329216692045L-65.7405530979515,-38.14418952117515z" style="fill:rgb(83,212,212)"/><path d="M66.799980728808,-55.543496873964656L-65.7405530979515,-38.14418952117515L-57.02976577671796,-22.516257936926028z" style="fill:rgb(127,37,217)"/><path d="M-72.18930252136532,60.24132875135525L-65.7405530979515,-38.14418952117515L-145.37596090504354,-77.10329216692045zM148.56160905973584,-161.38921583983793L-65.7405530979515,-38.14418952117515L59.69074312201651,-72.16421876398218z" style="fill:rgb(83,212,212)"/><path d="M66.799980728808,-55.543496873964656L59.69074312201651,-72.16421876398218L-65.7405530979515,-38.14418952117515z" style="fill:rgb(127,37,217)"/><path d="M-57.02976577671796,-22.516257936926028L-65.7405530979515,-38.14418952117515L-72.18930252136532,60.24132875135525zM-57.02976577671796,-22.516257936926028L-72.18930252136532,60.24132875135525L-62.53524767411501,75.81636203871427z" style="fill:rgb(247,158,158)"/><path d="M-145.37596090504354,-77.10329216692045L-182.84100196130055,171.33394337672695L-72.18930252136532,60.24132875135525z" style="fill:rgb(83,212,212)"/><path d="M154.09659249043074,-144.2066627143354L148.56160905973584,-161.38921583983793L190.5476409118969,87.2366999403201z" style="fill:rgb(247,158,158)"/><path d="M190.5476409118969,87.2366999403201L148.56160905973584,-161.38921583983793L59.69074312201651,-72.16421876398218zM65.74926629495833,26.183041532357393L-72.18930252136532,60.24132875135525L-182.84100196130055,171.33394337672695zM59.69074312201651,-72.16421876398218L65.74926629495833,26.183041532357393L190.5476409118969,87.2366999403201z" style="fill:rgb(83,212,212)"/><path d="M154.09659249043074,-144.2066627143354L190.5476409118969,87.2366999403201L196.85223124670046,104.64998532125905z" style="fill:rgb(247,158,158)"/><path d="M196.85223124670046,104.64998532125905L-182.84100196130055,171.33394337672695L-170.8598438623034,185.83669459963664z" style="fill:rgb(127,37,217)"/><path d="M65.74926629495833,26.183041532357393L-182.84100196130055,171.33394337672695L190.5476409118969,87.2366999403201z" style="fill:rgb(83,212,212)"/><path d="M196.85223124670046,104.64998532125905L190.5476409118969,87.2366999403201L-182.84100196130055,171.33394337672695z" style="fill:rgb(127,37,217)"/></svg>
