<?xml version="1.0" encoding="UTF-8"?>
<!-- Generated by jsxcad -->
<!DOCTYPE svg PUBLIC "-//W3C//DTD SVG 1.1 Tiny//EN" "http://www.w3.org/Graphics/SVG/1.1/DTD/svg11-tiny.dtd">
<svg viewBox="-250 -250 500 500" width="500" height="500" xmlns="http://www.w3.org/2000/svg"><path d="M-87.8894657149605,-93.58740817259911L-145.37596090504357,-77.10329216692047L-66.97567924802792,-38.748435179272356zM-66.97567924802792,-38.748435179272356L-145.37596090504357,-77.10329216692047L-153.86954760022138,-20.78082967798204zM-52.9733271707533,-56.53005993080662L-49.342103125309414,-58.3018445500854L-87.8894657149605,-93.58740817259911zM-87.8894657149605,-93.58740817259911L-56.350758683819535,-54.34508915971112L-52.9733271707533,-56.53005993080662zM-49.342103125309414,-58.3018445500854L-45.59053000671972,-59.5951875592418L-87.8894657149605,-93.58740817259911zM-87.8894657149605,-93.58740817259911L-59.34979807080256,-51.8267890527168L-56.350758683819535,-54.34508915971112zM-45.59053000671972,-59.5951875592418L-41.85651861141382,-60.36154171067369L-87.8894657149605,-93.58740817259911zM-87.8894657149605,-93.58740817259911L-61.858558291542934,-49.06708895573663L-59.34979807080256,-51.8267890527168zM-41.85651861141382,-60.36154171067369L-38.27814827743794,-60.57066389410321L-87.8894657149605,-93.58740817259911zM-87.8894657149605,-93.58740817259911L-63.78183368540228,-46.16723222024561L-61.858558291542934,-49.06708895573663zM-38.27814827743794,-60.57066389410321L-34.98920723111334,-60.211964527389554L-87.8894657149605,-93.58740817259911zM148.56160905973587,-161.38921583983793L-87.8894657149605,-93.58740817259911L-29.765443422187424,-57.85102097477856zM-34.98920723111334,-60.211964527389554L-32.11450312741564,-59.29529017028717L-87.8894657149605,-93.58740817259911zM-87.8894657149605,-93.58740817259911L-66.97567924802792,-38.748435179272356L-63.78183368540228,-46.16723222024561z" style="fill:rgb(83,212,212)"/><path d="M-44.54979230911532,-40.826997649424605L-40.96966304465291,-42.571868382632836L-49.342103125309414,-58.3018445500854z" style="fill:rgb(162,50,222)"/><path d="M-47.875030958947086,-38.66606274225011L-44.54979230911532,-40.826997649424605L-52.9733271707533,-56.53005993080662z" style="fill:rgb(183,62,221)"/><path d="M-40.96966304465291,-42.571868382632836L-37.26628233889517,-43.83638046988794L-45.59053000671972,-59.5951875592418z" style="fill:rgb(139,40,220)"/><path d="M-50.82261365921766,-36.16810324648832L-47.875030958947086,-38.66606274225011L-56.350758683819535,-54.34508915971112z" style="fill:rgb(203,77,216)"/><path d="M-37.26628233889517,-43.83638046988794L-33.575878160013865,-44.573014114247854L-41.85651861141382,-60.36154171067369z" style="fill:rgb(115,34,214)"/><path d="M-53.28251345577126,-33.42434301303921L-50.82261365921766,-36.16810324648832L-59.34979807080256,-51.8267890527168z" style="fill:rgb(220,94,208)"/><path d="M-33.575878160013865,-44.573014114247854L-30.034975143996164,-44.75265443003672L-38.27814827743794,-60.57066389410321z" style="fill:rgb(92,32,204)"/><path d="M-55.16134120662058,-30.53549292577124L-53.28251345577126,-33.42434301303921L-61.858558291542934,-49.06708895573663z" style="fill:rgb(233,112,197)"/><path d="M-49.342103125309414,-58.3018445500854L-52.9733271707533,-56.53005993080662L-44.54979230911532,-40.826997649424605z" style="fill:rgb(162,50,222)"/><path d="M-30.034975143996164,-44.75265443003672L-26.775991681412165,-44.365821468165095L-34.98920723111334,-60.211964527389554z" style="fill:rgb(71,33,192)"/><path d="M-52.9733271707533,-56.53005993080662L-56.350758683819535,-54.34508915971112L-47.875030958947086,-38.66606274225011z" style="fill:rgb(183,62,221)"/><path d="M-45.59053000671972,-59.5951875592418L-49.342103125309414,-58.3018445500854L-40.96966304465291,-42.571868382632836z" style="fill:rgb(139,40,220)"/><path d="M-56.38552186759246,-27.608528550778036L-55.16134120662058,-30.53549292577124L-63.78183368540228,-46.16723222024561z" style="fill:rgb(242,130,183)"/><path d="M-56.350758683819535,-54.34508915971112L-59.34979807080256,-51.8267890527168L-50.82261365921766,-36.16810324648832z" style="fill:rgb(203,77,216)"/><path d="M-41.85651861141382,-60.36154171067369L-45.59053000671972,-59.5951875592418L-37.26628233889517,-43.83638046988794z" style="fill:rgb(115,34,214)"/><path d="M-59.34979807080256,-51.8267890527168L-61.858558291542934,-49.06708895573663L-53.28251345577126,-33.42434301303921z" style="fill:rgb(220,94,208)"/><path d="M-38.27814827743794,-60.57066389410321L-41.85651861141382,-60.36154171067369L-33.575878160013865,-44.573014114247854z" style="fill:rgb(92,32,204)"/><path d="M-26.775991681412165,-44.365821468165095L-23.922590766033373,-43.42350128183383L-32.11450312741564,-59.29529017028717z" style="fill:rgb(51,38,177)"/><path d="M-56.90452154930089,-24.75322397751738L-56.38552186759246,-27.608528550778036L-65.04436044697835,-43.234578628669254z" style="fill:rgb(246,149,167)"/><path d="M-61.858558291542934,-49.06708895573663L-63.78183368540228,-46.16723222024561L-55.16134120662058,-30.53549292577124z" style="fill:rgb(233,112,197)"/><path d="M-34.98920723111334,-60.211964527389554L-38.27814827743794,-60.57066389410321L-30.034975143996164,-44.75265443003672z" style="fill:rgb(71,33,192)"/><path d="M-23.922590766033373,-43.42350128183383L-21.585301761996398,-41.957116249567065L-29.765443422187424,-57.85102097477856z" style="fill:rgb(34,46,160)"/><path d="M-63.78183368540228,-46.16723222024561L-65.04436044697835,-43.234578628669254L-56.38552186759246,-27.608528550778036z" style="fill:rgb(242,130,183)"/><path d="M-32.11450312741564,-59.29529017028717L-34.98920723111334,-60.211964527389554L-26.775991681412165,-44.365821468165095z" style="fill:rgb(51,38,177)"/><path d="M-21.585301761996398,-41.957116249567065L-19.857037118161376,-40.0182012116357L-28.035515662086866,-55.929748663580256z" style="fill:rgb(21,57,142)"/><path d="M-65.04436044697835,-43.234578628669254L-65.5940632030404,-40.379113396934756L-56.90452154930089,-24.75322397751738z" style="fill:rgb(246,149,167)"/><path d="M-29.765443422187424,-57.85102097477856L-32.11450312741564,-59.29529017028717L-23.922590766033373,-43.42350128183383z" style="fill:rgb(34,46,160)"/><path d="M-28.035515662086866,-55.929748663580256L-29.765443422187424,-57.85102097477856L-21.585301761996398,-41.957116249567065z" style="fill:rgb(21,57,142)"/><path d="M148.56160905973587,-161.38921583983793L-29.765443422187424,-57.85102097477856L-28.035515662086866,-55.929748663580256zM-65.5940632030404,-40.379113396934756L-65.04436044697835,-43.234578628669254L-66.97567924802792,-38.748435179272356zM-66.97567924802792,-38.748435179272356L-153.86954760022138,-20.78082967798204L-69.06595448460199,12.589888257674666zM148.56160905973587,-161.38921583983793L-28.035515662086866,-55.929748663580256L62.92787863652813,-73.04220806922973zM-26.694319683989182,-50.95112417867078L-26.75451934322068,-48.71815361212232L-26.449197140117583,-48.800964232085384z" style="fill:rgb(83,212,212)"/><path d="M62.92787863652813,-73.04220806922973L-26.75451934322068,-48.71815361212232L-18.52941969204348,-32.784873315981756z" style="fill:rgb(127,37,217)"/><path d="M-28.035515662086866,-55.929748663580256L-26.99640473288938,-53.60095641975007L62.92787863652813,-73.04220806922973z" style="fill:rgb(83,212,212)"/><path d="M-18.52941969204348,-32.784873315981756L69.99429529922196,-56.39546558740587L62.92787863652813,-73.04220806922973z" style="fill:rgb(127,37,217)"/><path d="M-56.90452154930089,-24.75322397751738L-65.5940632030404,-40.379113396934756L-70.0088879365264,26.975778586836395z" style="fill:rgb(247,158,158)"/><path d="M-26.99640473288938,-53.60095641975007L-26.449197140117583,-48.800964232085384L62.92787863652813,-73.04220806922973zM-69.06595448460199,12.589888257674666L-65.5940632030404,-40.379113396934756L-66.97567924802792,-38.748435179272356zM148.56160905973587,-161.38921583983793L62.92787863652813,-73.04220806922973L66.9640515012738,-73.85946179545802zM148.56160905973587,-161.38921583983793L66.9640515012738,-73.85946179545802L70.894724515323,-74.10186814503467zM148.56160905973587,-161.38921583983793L70.894724515323,-74.10186814503467L74.57346587854971,-73.75737725685475zM148.56160905973587,-161.38921583983793L74.57346587854971,-73.75737725685475L77.86123647378095,-72.83502147565306z" style="fill:rgb(83,212,212)"/><path d="M69.99429529922196,-56.39546558740587L73.97887193853818,-57.17984502542695L66.9640515012738,-73.85946179545802z" style="fill:rgb(115,34,214)"/><path d="M73.97887193853818,-57.17984502542695L77.86294506891839,-57.38941491842171L70.894724515323,-74.10186814503467z" style="fill:rgb(92,32,204)"/><path d="M148.56160905973587,-161.38921583983793L77.86123647378095,-72.83502147565306L98.62833790228558,-75.16074956156741z" style="fill:rgb(83,212,212)"/><path d="M77.86294506891839,-57.38941491842171L81.50176979381058,-57.01338586714474L74.57346587854971,-73.75737725685475z" style="fill:rgb(71,33,192)"/><path d="M66.9640515012738,-73.85946179545802L62.92787863652813,-73.04220806922973L69.99429529922196,-56.39546558740587z" style="fill:rgb(115,34,214)"/><path d="M70.894724515323,-74.10186814503467L66.9640515012738,-73.85946179545802L73.97887193853818,-57.17984502542695z" style="fill:rgb(92,32,204)"/><path d="M81.50176979381058,-57.01338586714474L84.75778733628131,-56.06204073354062L77.86123647378095,-72.83502147565306z" style="fill:rgb(51,38,177)"/><path d="M-90.82051308232056,39.345916753509584L-69.06595448460199,12.589888257674666L-153.86954760022138,-20.78082967798204z" style="fill:rgb(83,212,212)"/><path d="M74.57346587854971,-73.75737725685475L70.894724515323,-74.10186814503467L77.86294506891839,-57.38941491842171z" style="fill:rgb(71,33,192)"/><path d="M84.75778733628131,-56.06204073354062L87.50544641599608,-54.56678717632386L80.63120008218888,-71.36501868131685z" style="fill:rgb(34,46,160)"/><path d="M-70.0088879365264,26.975778586836395L-60.67551317103309,42.599912501745685L-56.90452154930089,-24.75322397751738z" style="fill:rgb(247,158,158)"/><path d="M77.86123647378095,-72.83502147565306L74.57346587854971,-73.75737725685475L81.50176979381058,-57.01338586714474z" style="fill:rgb(51,38,177)"/><path d="M87.50544641599608,-54.56678717632386L89.63618477946564,-52.57987628402741L82.77382151216884,-69.39854584043566z" style="fill:rgb(21,57,142)"/><path d="M-92.9533708506733,42.65759392229032L-90.82051308232056,39.345916753509584L-153.86954760022138,-20.78082967798204z" style="fill:rgb(83,212,212)"/><path d="M80.63120008218888,-71.36501868131685L77.86123647378095,-72.83502147565306L84.75778733628131,-56.06204073354062z" style="fill:rgb(34,46,160)"/><path d="M-94.38754173257273,46.04277284943877L-92.9533708506733,42.65759392229032L-153.86954760022138,-20.78082967798204z" style="fill:rgb(83,212,212)"/><path d="M89.63618477946564,-52.57987628402741L91.06280857127699,-50.17303978344169L84.2012888580511,-67.00644688786232z" style="fill:rgb(12,71,124)"/><path d="M-95.06394887066935,49.37501008225103L-94.38754173257273,46.04277284943877L-153.86954760022138,-20.78082967798204z" style="fill:rgb(83,212,212)"/><path d="M82.77382151216884,-69.39854584043566L80.63120008218888,-71.36501868131685L87.50544641599608,-54.56678717632386z" style="fill:rgb(21,57,142)"/><path d="M-94.95057403405352,52.52779966941347L-95.06394887066935,49.37501008225103L-153.86954760022138,-20.78082967798204z" style="fill:rgb(83,212,212)"/><path d="M84.2012888580511,-67.00644688786232L82.77382151216884,-69.39854584043566L89.63618477946564,-52.57987628402741z" style="fill:rgb(12,71,124)"/><path d="M-94.0444738879816,55.379129974936546L-94.95057403405352,52.52779966941347L-153.86954760022138,-20.78082967798204zM77.86123647378095,-72.83502147565306L80.63120008218888,-71.36501868131685L98.62833790228558,-75.16074956156741zM-92.37307133848944,57.81620608179738L-94.0444738879816,55.379129974936546L-153.86954760022138,-20.78082967798204zM80.63120008218888,-71.36501868131685L82.77382151216884,-69.39854584043566L98.62833790228558,-75.16074956156741zM82.77382151216884,-69.39854584043566L84.2012888580511,-67.00644688786232L98.62833790228558,-75.16074956156741zM84.2012888580511,-67.00644688786232L84.85187696685426,-64.27735066701113L98.62833790228558,-75.16074956156741z" style="fill:rgb(83,212,212)"/><path d="M-71.67364780573585,46.563742953874076L-67.82742227191997,44.697157154679374L-77.25822433879283,29.12965119954369z" style="fill:rgb(162,50,222)"/><path d="M-75.26224930085714,48.93032584445789L-71.67364780573585,46.563742953874076L-81.1634796762275,31.0270840587424z" style="fill:rgb(183,62,221)"/><path d="M84.85187696685426,-64.27735066701113L84.69327894506328,-61.31470142056686L98.62833790228558,-75.16074956156741z" style="fill:rgb(83,212,212)"/><path d="M-67.82742227191997,44.697157154679374L-63.864527735224925,43.39915165451656L-73.24016318943171,27.800202758540973z" style="fill:rgb(139,40,220)"/><path d="M-78.46118117956067,51.710741812925235L-75.26224930085714,48.93032584445789L-84.81291863172727,33.422837550103566z" style="fill:rgb(203,77,216)"/><path d="M-73.24016318943171,27.800202758540973L-63.864527735224925,43.39915165451656L-60.67551317103309,42.599912501745685z" style="fill:rgb(127,37,217)"/><path d="M-81.15136319671723,54.803976306995004L-78.46118117956067,51.710741812925235L-88.07233864256366,36.229751022501105z" style="fill:rgb(220,94,208)"/><path d="M84.69327894506328,-61.31470142056686L83.72493146367204,-58.2330550569598L98.62833790228558,-75.16074956156741zM98.62833790228558,-75.16074956156741L79.52059232327788,-52.19928786116184L96.05831230113938,-66.76993139066911zM83.72493146367204,-58.2330550569598L81.97911397373008,-55.15365435770625L98.62833790228558,-75.16074956156741z" style="fill:rgb(83,212,212)"/><path d="M-83.23085849733708,58.09706383889373L-81.15136319671723,54.803976306995004L-90.82051308232056,39.345916753509584z" style="fill:rgb(233,112,197)"/><path d="M-77.25822433879283,29.12965119954369L-81.1634796762275,31.0270840587424L-71.67364780573585,46.563742953874076z" style="fill:rgb(162,50,222)"/><path d="M-81.1634796762275,31.0270840587424L-84.81291863172727,33.422837550103566L-75.26224930085714,48.93032584445789z" style="fill:rgb(183,62,221)"/><path d="M-73.24016318943171,27.800202758540973L-77.25822433879283,29.12965119954369L-67.82742227191997,44.697157154679374z" style="fill:rgb(139,40,220)"/><path d="M-84.61834773058807,61.46862693993978L-83.23085849733708,58.09706383889373L-92.9533708506733,42.65759392229032z" style="fill:rgb(242,130,183)"/><path d="M-84.81291863172727,33.422837550103566L-88.07233864256366,36.229751022501105L-78.46118117956067,51.710741812925235z" style="fill:rgb(203,77,216)"/><path d="M-81.1634796762275,31.0270840587424L-69.91624933960824,25.56243368019792L-69.06595448460199,12.589888257674666zM-84.81291863172727,33.422837550103566L-81.1634796762275,31.0270840587424L-69.06595448460199,12.589888257674666z" style="fill:rgb(83,212,212)"/><path d="M-60.67551317103309,42.599912501745685L-70.0088879365264,26.975778586836395L-73.24016318943171,27.800202758540973z" style="fill:rgb(127,37,217)"/><path d="M-88.07233864256366,36.229751022501105L-84.81291863172727,33.422837550103566L-69.06595448460199,12.589888257674666z" style="fill:rgb(83,212,212)"/><path d="M-88.07233864256366,36.229751022501105L-90.82051308232056,39.345916753509584L-81.15136319671723,54.803976306995004z" style="fill:rgb(220,94,208)"/><path d="M-90.82051308232056,39.345916753509584L-88.07233864256366,36.229751022501105L-69.06595448460199,12.589888257674666z" style="fill:rgb(83,212,212)"/><path d="M-85.25661719971755,64.79271288681147L-84.61834773058807,61.46862693993978L-94.38754173257273,46.04277284943877z" style="fill:rgb(246,149,167)"/><path d="M-90.82051308232056,39.345916753509584L-92.9533708506733,42.65759392229032L-83.23085849733708,58.09706383889373z" style="fill:rgb(233,112,197)"/><path d="M-69.91624933960824,25.56243368019792L-77.25822433879283,29.12965119954369L-69.99249334480797,26.725652389121468zM70.73912791959961,-44.46233562496918L68.94646698185934,-45.22460622805372L64.82594178985332,-43.84264815853655zM-69.99249334480797,26.725652389121468L-73.24016318943171,27.800202758540973L-70.0088879365264,26.975778586836395z" style="fill:rgb(83,212,212)"/><path d="M-85.11523803773144,67.94315273286676L-85.25661719971755,64.79271288681147L-95.06394887066935,49.37501008225103z" style="fill:rgb(246,167,149)"/><path d="M70.73912791959961,-44.46233562496918L76.44431442003878,-49.488922604012224L72.87194854029761,-47.132229073281806zM70.73912791959961,-44.46233562496918L70.85005227205234,-46.14967139980894L68.94646698185934,-45.22460622805372zM72.87194854029761,-47.132229073281806L70.85005227205234,-46.14967139980894L70.73912791959961,-44.46233562496918z" style="fill:rgb(83,212,212)"/><path d="M-92.9533708506733,42.65759392229032L-94.38754173257273,46.04277284943877L-84.61834773058807,61.46862693993978z" style="fill:rgb(242,130,183)"/><path d="M196.8522312467005,104.64998532125908L154.0965924904308,-144.20666271433547L148.56160905973587,-161.38921583983793z" style="fill:rgb(247,158,158)"/><path d="M-84.19256159827881,70.79808403638695L-85.11523803773144,67.94315273286676L-94.95057403405352,52.52779966941347z" style="fill:rgb(242,183,130)"/><path d="M-94.38754173257273,46.04277284943877L-95.06394887066935,49.37501008225103L-85.25661719971755,64.79271288681147z" style="fill:rgb(246,149,167)"/><path d="M-92.37307133848944,57.81620608179738L-153.86954760022138,-20.78082967798204L-182.84100196130058,171.333943376727z" style="fill:rgb(83,212,212)"/><path d="M-95.06394887066935,49.37501008225103L-94.95057403405352,52.52779966941347L-85.11523803773144,67.94315273286676z" style="fill:rgb(246,167,149)"/><path d="M-94.95057403405352,52.52779966941347L-94.0444738879816,55.379129974936546L-84.19256159827881,70.79808403638695z" style="fill:rgb(242,183,130)"/><path d="M96.05831230113938,-66.76993139066911L70.73912791959961,-44.46233562496918L65.91652725444686,28.89816451023772zM64.82594178985332,-43.84264815853655L61.48970521786898,-42.96188951529328L65.91652725444686,28.89816451023772zM70.73912791959961,-44.46233562496918L64.82594178985332,-43.84264815853655L65.91652725444686,28.89816451023772zM190.54764091189696,87.23669994032012L148.56160905973587,-161.38921583983793L98.62833790228558,-75.16074956156741zM-89.99431668907789,59.74037996519018L-92.37307133848944,57.81620608179738L-182.84100196130058,171.333943376727zM-86.9952174599697,61.07153164637346L-89.99431668907789,59.74037996519018L-182.84100196130058,171.333943376727zM96.05831230113938,-66.76993139066911L65.91652725444686,28.89816451023772L65.68708323704514,32.38837519505763zM-83.48943746785517,61.75224928802265L-86.9952174599697,61.07153164637346L-182.84100196130058,171.333943376727z" style="fill:rgb(83,212,212)"/><path d="M20.98030697095423,39.9632058855823L29.36471598893869,56.26675921374724L29.292212983324973,53.5572625847066z" style="fill:rgb(247,158,158)"/><path d="M39.56931963335683,52.75634567042L-75.5193039007721,61.06353353629189L-79.61305933617129,61.75082406688182zM-79.61305933617129,61.75082406688182L-83.48943746785517,61.75224928802265L-182.84100196130058,171.333943376727z" style="fill:rgb(83,212,212)"/><path d="M29.87728458052319,59.54027744695889L29.36471598893869,56.26675921374724L20.98030697095423,39.9632058855823z" style="fill:rgb(246,167,149)"/><path d="M29.292212983324973,53.5572625847066L20.92765040886382,37.249905396531524L20.98030697095423,39.9632058855823z" style="fill:rgb(247,158,158)"/><path d="M31.220733790927426,62.50422914262376L29.87728458052319,59.54027744695889L21.474284446889826,43.23836729765368z" style="fill:rgb(242,183,130)"/><path d="M27.814324029287054,50.71285300939L11.712888696762747,39.52511507186159L-75.5193039007721,61.06353353629189z" style="fill:rgb(83,212,212)"/><path d="M20.98030697095423,39.9632058855823L21.474284446889826,43.23836729765368L29.87728458052319,59.54027744695889z" style="fill:rgb(246,167,149)"/><path d="M20.92765040886382,37.249905396531524L20.583876711603967,37.33478646716354L20.98030697095423,39.9632058855823zM21.474284446889826,43.23836729765368L20.583876711603967,37.33478646716354L11.712888696762747,39.52511507186159z" style="fill:rgb(83,212,212)"/><path d="M21.474284446889826,43.23836729765368L22.81212736946602,46.19740317771279L31.220733790927426,62.50422914262376z" style="fill:rgb(242,183,130)"/><path d="M31.29752433733174,52.083513238718325L27.814324029287054,50.71285300939L-75.5193039007721,61.06353353629189zM11.712888696762747,39.52511507186159L22.81212736946602,46.19740317771279L21.474284446889826,43.23836729765368zM35.26746070301913,52.775558474516274L31.29752433733174,52.083513238718325L-75.5193039007721,61.06353353629189zM11.712888696762747,39.52511507186159L24.950629031828242,48.72307818210836L22.81212736946602,46.19740317771279zM39.56931963335683,52.75634567042L35.26746070301913,52.775558474516274L-75.5193039007721,61.06353353629189zM39.56931963335683,52.75634567042L-79.61305933617129,61.75082406688182L-182.84100196130058,171.333943376727zM44.032374584500445,52.02251567713136L39.56931963335683,52.75634567042L-182.84100196130058,171.333943376727zM190.54764091189696,87.23669994032012L98.62833790228558,-75.16074956156741L65.68708323704514,32.38837519505763zM-182.84100196130058,171.333943376727L48.47751095494054,50.600674234598806L44.032374584500445,52.02251567713136zM-182.84100196130058,171.333943376727L52.72522453891762,48.54662606375546L48.47751095494054,50.600674234598806z" style="fill:rgb(83,212,212)"/><path d="M148.56160905973587,-161.38921583983793L190.54764091189696,87.23669994032012L196.8522312467005,104.64998532125908z" style="fill:rgb(247,158,158)"/><path d="M190.54764091189696,87.23669994032012L65.68708323704514,32.38837519505763L64.58719103521348,35.97939036439494z" style="fill:rgb(83,212,212)"/><path d="M190.54764091189696,87.23669994032012L-182.84100196130058,171.333943376727L-170.85984386230342,185.8366945996367z" style="fill:rgb(127,37,217)"/><path d="M190.54764091189696,87.23669994032012L64.58719103521348,35.97939036439494L62.65345058737647,39.52935002288623zM190.54764091189696,87.23669994032012L62.65345058737647,39.52935002288623L59.95758205740246,42.89601969260886zM190.54764091189696,87.23669994032012L59.95758205740246,42.89601969260886L56.60384212154836,45.943100453780254zM190.54764091189696,87.23669994032012L56.60384212154836,45.943100453780254L52.72522453891762,48.54662606375546zM-182.84100196130058,171.333943376727L190.54764091189696,87.23669994032012L52.72522453891762,48.54662606375546z" style="fill:rgb(83,212,212)"/><path d="M-170.85984386230342,185.8366945996367L196.8522312467005,104.64998532125908L190.54764091189696,87.23669994032012z" style="fill:rgb(127,37,217)"/></svg>
