<?xml version="1.0" encoding="UTF-8"?>
<!-- Generated by jsxcad -->
<!DOCTYPE svg PUBLIC "-//W3C//DTD SVG 1.1 Tiny//EN" "http://www.w3.org/Graphics/SVG/1.1/DTD/svg11-tiny.dtd">
<svg viewBox="-250 -250 500 500" width="500" height="500" xmlns="http://www.w3.org/2000/svg"><path d="M-65.7405530979515,-38.14418952117516L55.83221239260743,-134.79927880014222L-61.612611218959685,-101.12223358635646zM-65.7405530979515,-38.14418952117516L59.690743122016514,-72.16421876398219L55.83221239260743,-134.79927880014222z" style="fill:rgb(83,212,212)"/><path d="M66.79998072880801,-55.54349687396467L-65.7405530979515,-38.14418952117516L-57.029765776717966,-22.51625793692603z" style="fill:rgb(127,37,217)"/><path d="M-182.84100196130058,171.333943376727L-61.612611218959685,-101.12223358635646L-145.37596090504357,-77.10329216692047z" style="fill:rgb(83,212,212)"/><path d="M66.79998072880801,-55.54349687396467L59.690743122016514,-72.16421876398219L-65.7405530979515,-38.14418952117516z" style="fill:rgb(127,37,217)"/><path d="M-57.029765776717966,-22.51625793692603L-65.7405530979515,-38.14418952117516L-72.18930252136532,60.241328751355255zM-57.029765776717966,-22.51625793692603L-72.18930252136532,60.241328751355255L-62.53524767411503,75.8163620387143z" style="fill:rgb(247,158,158)"/><path d="M71.1667582304035,114.1245130080979L148.56160905973587,-161.38921583983793L55.83221239260743,-134.79927880014222z" style="fill:rgb(83,212,212)"/><path d="M154.0965924904308,-144.20666271433547L148.56160905973587,-161.38921583983793L190.54764091189696,87.23669994032012z" style="fill:rgb(247,158,158)"/><path d="M-182.84100196130058,171.333943376727L-77.92206325628945,147.70336129184645L-61.612611218959685,-101.12223358635646zM-77.92206325628945,147.70336129184645L65.74926629495835,26.1830415323574L-72.18930252136532,60.241328751355255z" style="fill:rgb(83,212,212)"/><path d="M154.0965924904308,-144.20666271433547L190.54764091189696,87.23669994032012L196.8522312467005,104.64998532125908z" style="fill:rgb(247,158,158)"/><path d="M71.1667582304035,114.1245130080979L190.54764091189696,87.23669994032012L148.56160905973587,-161.38921583983793z" style="fill:rgb(83,212,212)"/><path d="M196.8522312467005,104.64998532125908L-182.84100196130058,171.333943376727L-170.85984386230342,185.8366945996367z" style="fill:rgb(127,37,217)"/><path d="M-77.92206325628945,147.70336129184645L71.1667582304035,114.1245130080979L65.74926629495835,26.1830415323574z" style="fill:rgb(83,212,212)"/><path d="M196.8522312467005,104.64998532125908L190.54764091189696,87.23669994032012L-182.84100196130058,171.333943376727z" style="fill:rgb(127,37,217)"/></svg>
