<?xml version="1.0" encoding="UTF-8"?>
<!-- Generated by jsxcad -->
<!DOCTYPE svg PUBLIC "-//W3C//DTD SVG 1.1 Tiny//EN" "http://www.w3.org/Graphics/SVG/1.1/DTD/svg11-tiny.dtd">
<svg baseProfile="tiny" height="230.00000000000017mm" width="197.9642883761867mm" viewBox="-98.98214418809334 -130.0000000000001 98.98214418809334 100.00000000000006" version="1.1" stroke="black" stroke-width=".1" fill="none" xmlns="http://www.w3.org/2000/svg">
<path fill="#000000" stroke="#000000" d="M90.96319953545185 241.54150130018877 L98.70744759011907 215.1670145256157 L98.75648747954533 215.00000000000014 L98.75648747954533 215.00000000000014 L98.75648747954533 215.00000000000014 L98.75648747954533 215.00000000000014 L98.70744759011907 215.1670145256157 L90.96319953545185 241.54150130018877 z"/>
<path fill="#000000" stroke="#000000" d="M90.96319953545186 241.54150130018874 L87.43842518977127 247.0261572399524 L75.57495743542586 265.4860733945286 L75.57495743542586 265.4860733945286 L87.43842518977127 247.0261572399524 L90.96319953545186 241.54150130018874 z"/>
<path fill="#000000" stroke="#000000" d="M54.06408174555978 284.1253532831183 L75.57495743542583 265.48607339452866 L75.57495743542583 265.48607339452866 L54.06408174555978 284.1253532831183 z"/>
<path fill="#000000" stroke="#000000" d="M54.06408174555978 284.1253532831183 L38.34618689836047 291.3034753430913 L32.78972831415081 293.8410249530347 L28.17325568414302 295.94929736144985 L28.17325568414302 295.94929736144985 L32.78972831415081 293.8410249530347 L38.34618689836047 291.3034753430913 L54.06408174555978 284.1253532831183 z"/>
<path fill="#000000" stroke="#000000" d="M-28.173255684142898 295.9492973614499 L-28.173255684142898 295.9492973614499 L7.273661547324615e-14 300.0000000000001 L7.273661547324615e-14 300.0000000000001 z"/>
<path fill="#000000" stroke="#000000" d="M-54.06408174555971 284.1253532831183 L-54.06408174555971 284.1253532831183 L-28.1732556841429 295.9492973614499 L-28.1732556841429 295.9492973614499 z"/>
<path fill="#000000" stroke="#000000" d="M-75.57495743542577 265.4860733945287 L-75.57495743542577 265.4860733945287 L-54.06408174555971 284.1253532831183 L-54.06408174555971 284.1253532831183 z"/>
<path fill="#000000" stroke="#000000" d="M-75.57495743542579 265.4860733945287 L-78.57947908701898 260.81094644838737 L-87.43842518977124 247.02615723995245 L-90.96319953545184 241.5415013001888 L-90.96319953545184 241.5415013001888 L-87.43842518977124 247.02615723995245 L-78.57947908701898 260.81094644838737 L-75.57495743542579 265.4860733945287 z"/>
<path fill="#000000" stroke="#000000" d="M7.273661547324615e-14 300.00000000000017 L7.273661547324615e-14 300.00000000000017 L28.17325568414302 295.94929736144985 L28.17325568414302 295.94929736144985 z"/>
<path fill="#000000" stroke="#000000" d="M-98.75648747954533 215.00000000000014 L-98.75648747954533 215.00000000000014 L-98.75648747954533 215.00000000000014 L-98.75648747954533 215.00000000000014 L-96.08662606706004 224.0927129421041 L-94.57774679401777 229.23148382732865 L-90.96319953545182 241.54150130018883 L-90.96319953545182 241.54150130018883 L-94.57774679401777 229.23148382732865 L-96.08662606706004 224.0927129421041 z"/>
<path fill="#000000" stroke="#000000" d="M98.75648747954533 215.00000000000014 L98.75648747954533 215.00000000000014 L98.75648747954533 215.00000000000014 L98.75648747954533 215.00000000000014 L98.98214418809326 215.7685161726716 L98.98214418809326 215.7685161726716 z"/>
<path fill="#000000" stroke="#000000" d="M98.98214418809327 244.23148382732865 L98.98214418809326 215.76851617267158 L98.98214418809326 215.76851617267158 L98.98214418809327 244.23148382732865 z"/>
<path fill="#000000" stroke="#000000" d="M90.96319953545185 271.5415013001887 L98.98214418809329 244.23148382732862 L98.98214418809329 244.23148382732862 L90.96319953545185 271.5415013001887 z"/>
<path fill="#000000" stroke="#000000" d="M75.57495743542584 295.4860733945286 L90.96319953545186 271.5415013001887 L90.96319953545186 271.5415013001887 L75.57495743542584 295.4860733945286 z"/>
<path fill="#000000" stroke="#000000" d="M54.064081745559776 314.1253532831183 L75.57495743542583 295.48607339452866 L75.57495743542583 295.48607339452866 L54.064081745559776 314.1253532831183 z"/>
<path fill="#000000" stroke="#000000" d="M28.17325568414302 325.94929736144985 L54.06408174555978 314.1253532831183 L54.06408174555978 314.1253532831183 L28.17325568414302 325.94929736144985 z"/>
<path fill="#000000" stroke="#000000" d="M-28.173255684142898 325.9492973614499 L7.273661547324615e-14 330.0000000000001 L7.273661547324615e-14 330.0000000000001 L-28.173255684142898 325.9492973614499 z"/>
<path fill="#000000" stroke="#000000" d="M-54.06408174555971 314.1253532831183 L-28.1732556841429 325.9492973614499 L-28.1732556841429 325.9492973614499 L-54.06408174555971 314.1253532831183 z"/>
<path fill="#000000" stroke="#000000" d="M-75.57495743542577 295.4860733945287 L-54.06408174555971 314.1253532831183 L-54.06408174555971 314.1253532831183 L-75.57495743542577 295.4860733945287 z"/>
<path fill="#000000" stroke="#000000" d="M-90.96319953545182 271.5415013001888 L-75.5749574354258 295.48607339452866 L-75.5749574354258 295.48607339452866 L-90.96319953545182 271.5415013001888 z"/>
<path fill="#000000" stroke="#000000" d="M7.273661547324615e-14 330.00000000000017 L28.17325568414302 325.94929736144985 L28.17325568414302 325.94929736144985 L7.273661547324615e-14 330.00000000000017 z"/>
<path fill="#000000" stroke="#000000" d="M-98.98214418809327 244.23148382732867 L-90.96319953545182 271.5415013001888 L-90.96319953545182 271.5415013001888 L-98.98214418809327 244.23148382732867 z"/>
<path fill="#000000" stroke="#000000" d="M-98.98214418809329 215.76851617267167 L-98.98214418809327 244.23148382732867 L-98.98214418809327 244.23148382732867 L-98.98214418809329 215.76851617267167 z"/>
<path fill="#000000" stroke="#000000" d="M-98.75648747954533 215.00000000000014 L-98.75648747954533 215.00000000000014 L-98.75648747954533 215.00000000000014 L-98.75648747954533 215.00000000000014 L-98.98214418809327 215.76851617267167 L-98.98214418809327 215.76851617267167 z"/>
<path fill="#000000" stroke="#000000" d="M-94.57774679401776 229.23148382732865 L-96.08662606706004 224.0927129421041 L-98.75648747954533 215.00000000000014 L-98.98214418809329 215.76851617267164 L-98.98214418809327 244.23148382732865 L-90.96319953545182 271.54150130018877 L-75.57495743542579 295.4860733945287 L-54.06408174555972 314.1253532831183 L-28.173255684142905 325.9492973614499 L7.273661547324616e-14 330.0000000000001 L28.173255684143022 325.94929736144985 L54.06408174555979 314.1253532831182 L75.57495743542584 295.4860733945286 L90.96319953545185 271.54150130018877 L98.98214418809329 244.23148382732862 L98.98214418809327 215.7685161726716 L98.75648747954533 215.00000000000014 L98.70744759011906 215.1670145256157 L90.96319953545185 241.54150130018874 L87.43842518977125 247.02615723995243 L75.57495743542584 265.4860733945286 L75.57495743542583 265.48607339452866 L54.06408174555979 284.1253532831182 L38.34618689836047 291.3034753430913 L32.789728314150814 293.8410249530347 L28.173255684143022 295.94929736144985 L7.273661547324616e-14 300.0000000000001 L-28.173255684142905 295.9492973614499 L-54.06408174555972 284.1253532831183 L-75.57495743542579 265.48607339452866 L-78.57947908701897 260.81094644838737 L-87.43842518977122 247.02615723995245 L-90.96319953545182 241.54150130018883 z"/>
<path fill="#000000" stroke="#000000" d="M32.789728314150814 293.84102495303466 L38.34618689836047 291.3034753430913 L54.06408174555979 284.1253532831182 L75.57495743542583 265.48607339452866 L75.57495743542584 265.4860733945286 L87.43842518977125 247.0261572399524 L90.96319953545185 241.54150130018877 L98.70744759011906 215.1670145256157 L98.75648747954533 215.00000000000014 L98.98214418809327 215.7685161726716 L98.98214418809329 244.23148382732865 L90.96319953545185 271.54150130018877 L75.57495743542584 295.4860733945286 L54.06408174555979 314.1253532831182 L28.173255684143022 325.94929736144985 L7.273661547324616e-14 330.0000000000001 L-28.173255684142905 325.9492973614499 L-54.06408174555972 314.1253532831183 L-75.57495743542579 295.4860733945287 L-90.96319953545182 271.5415013001888 L-98.98214418809327 244.23148382732867 L-98.98214418809329 215.76851617267164 L-98.75648747954533 215.00000000000014 L-96.08662606706004 224.09271294210407 L-94.57774679401776 229.23148382732867 L-90.96319953545182 241.5415013001888 L-87.43842518977122 247.02615723995243 L-78.57947908701897 260.81094644838737 L-75.57495743542579 265.4860733945287 L-54.06408174555972 284.1253532831183 L-28.173255684142905 295.9492973614499 L7.273661547324616e-14 300.0000000000001 L28.173255684143022 295.94929736144985 z"/>
<path fill="#000000" stroke="#000000" d="M98.98214418809329 300.00000000000017 L98.98214418809329 300.00000000000017 L98.98214418809329 100.00000000000017 L98.98214418809329 100.00000000000017 z"/>
<path fill="#000000" stroke="#000000" d="M98.98214418809329 100.00000000000017 L98.98214418809329 100.00000000000017 L-98.98214418809329 100.00000000000017 L-98.98214418809329 100.00000000000017 z"/>
<path fill="#000000" stroke="#000000" d="M-98.98214418809329 300.00000000000017 L-98.98214418809329 300.00000000000017 L98.98214418809329 300.00000000000017 L98.98214418809329 300.00000000000017 z"/>
<path fill="#000000" stroke="#000000" d="M-98.98214418809329 100.00000000000017 L-98.98214418809329 100.00000000000017 L-98.98214418809329 300.00000000000017 L-98.98214418809329 300.00000000000017 z"/>
<path fill="#000000" stroke="#000000" d="M98.98214418809329 300.0000000000001 L98.98214418809329 100.00000000000016 L-98.98214418809329 100.00000000000016 L-98.98214418809329 300.0000000000001 z"/>
<path fill="#000000" stroke="#000000" d="M-98.98214418809329 100.00000000000016 L98.98214418809329 100.00000000000016 L98.98214418809329 300.0000000000001 L-98.98214418809329 300.0000000000001 z"/>
</svg>