<?xml version="1.0" encoding="UTF-8"?>
<!-- Generated by jsxcad -->
<!DOCTYPE svg PUBLIC "-//W3C//DTD SVG 1.1 Tiny//EN" "http://www.w3.org/Graphics/SVG/1.1/DTD/svg11-tiny.dtd">
<svg viewBox="-250 -250 500 500" width="500" height="500" xmlns="http://www.w3.org/2000/svg"><path d="M-100.21178028855526,-219.91222583769988L-139.30205023745972,-198.230280912579L-174.48605584814848,-172.122973689086zM-17.275257975700054,-246.42323313132022L-58.93877738306196,-236.25225760112838L-100.21178028855526,-219.91222583769988z" style="fill:rgb(83,212,212)"/><path d="M-52.99918383022527,219.61271823480655L-231.83981528460356,-20.24841992120676L-75.34606444910466,196.13781654007147z" style="fill:rgb(32,48,157)"/><path d="M-100.21178028855526,-219.91222583769988L-174.48605584814848,-172.122973689086L-226.23232438391375,-111.02520109534449zM59.274130719331644,-245.39362171420024L-17.275257975700054,-246.42323313132022L-100.21178028855526,-219.91222583769988zM-174.48605584814848,-172.122973689086L-204.0448341348258,-142.63902190101922L-226.23232438391375,-111.02520109534449zM59.274130719331644,-245.39362171420024L22.84291731878617,-249.67936137352737L-17.275257975700054,-246.42323313132022z" style="fill:rgb(83,212,212)"/><path d="M207.81061015443527,68.62538102232901L119.74584668304206,-151.26916941872904L208.2877438332796,102.41876958295143z" style="fill:rgb(246,146,169)"/><path d="M-21.56347158918264,235.89710054194535L-209.34112081585909,1.46587031714011L-52.99918383022527,219.61271823480655z" style="fill:rgb(54,37,180)"/><path d="M208.2877438332796,102.41876958295143L102.93645945747656,-113.43101788222666L197.2637181053237,138.10343784048644z" style="fill:rgb(238,121,190)"/><path d="M17.024280565651623,243.04991341539943L-174.5257727040746,14.900805014620289L-21.56347158918264,235.89710054194535z" style="fill:rgb(81,32,199)"/><path d="M-100.21178028855526,-219.91222583769988L-226.23232438391375,-111.02520109534449L-209.34112081585909,1.46587031714011zM-226.23232438391375,-111.02520109534449L-239.3003347572233,-78.80020111299737L-241.60787261671732,-47.81289615158961zM119.74584668304206,-151.26916941872904L59.274130719331644,-245.39362171420024L-100.21178028855526,-219.91222583769988z" style="fill:rgb(83,212,212)"/><path d="M197.2637181053237,138.10343784048644L71.98273571825379,-74.7874880286071L174.87305214013983,172.7132247976239z" style="fill:rgb(222,97,206)"/><path d="M59.78529810031392,239.85524147852738L-129.2472683457638,18.024597415480173L17.024280565651623,243.04991341539943z" style="fill:rgb(111,34,212)"/><path d="M111.45181359981721,-212.90324733032347L89.65226130406269,-233.15109052201362L59.274130719331644,-245.39362171420024z" style="fill:rgb(83,212,212)"/><path d="M-52.99918383022527,219.61271823480655L-209.34112081585909,1.46587031714011L-231.83981528460356,-20.24841992120676z" style="fill:rgb(32,48,157)"/><path d="M174.87305214013983,172.7132247976239L28.922440427793266,-39.042448741788135L142.54077124048808,203.04974745360227z" style="fill:rgb(200,74,217)"/><path d="M102.96386879072422,226.16273943520955L-76.94929675940895,9.698324498316765L59.78529810031392,239.85524147852738z" style="fill:rgb(143,42,220)"/><path d="M207.81061015443527,68.62538102232901L122.18252436613628,-185.17289040488515L119.74584668304206,-151.26916941872904z" style="fill:rgb(246,146,169)"/><path d="M142.54077124048808,203.04974745360227L-22.41711789725924,-9.888271712823707L102.96386879072422,226.16273943520955z" style="fill:rgb(173,56,222)"/><path d="M-226.23232438391375,-111.02520109534449L-241.60787261671732,-47.81289615158961L-209.34112081585909,1.46587031714011zM-209.34112081585909,1.46587031714011L119.74584668304206,-151.26916941872904L-100.21178028855526,-219.91222583769988z" style="fill:rgb(83,212,212)"/><path d="M-21.56347158918264,235.89710054194535L-174.5257727040746,14.900805014620289L-209.34112081585909,1.46587031714011z" style="fill:rgb(54,37,180)"/><path d="M119.74584668304206,-151.26916941872904L111.45181359981721,-212.90324733032347L59.274130719331644,-245.39362171420024z" style="fill:rgb(83,212,212)"/><path d="M208.2877438332796,102.41876958295143L119.74584668304206,-151.26916941872904L102.93645945747656,-113.43101788222666z" style="fill:rgb(238,121,190)"/><path d="M-241.60787261671732,-47.81289615158961L-231.83981528460356,-20.24841992120676L-209.34112081585909,1.46587031714011z" style="fill:rgb(83,212,212)"/><path d="M17.024280565651623,243.04991341539943L-129.2472683457638,18.024597415480173L-174.5257727040746,14.900805014620289z" style="fill:rgb(81,32,199)"/><path d="M197.2637181053237,138.10343784048644L102.93645945747656,-113.43101788222666L71.98273571825379,-74.7874880286071z" style="fill:rgb(222,97,206)"/><path d="M119.74584668304206,-151.26916941872904L122.18252436613628,-185.17289040488515L111.45181359981721,-212.90324733032347z" style="fill:rgb(83,212,212)"/><path d="M59.78529810031392,239.85524147852738L-76.94929675940895,9.698324498316765L-129.2472683457638,18.024597415480173z" style="fill:rgb(111,34,212)"/><path d="M174.87305214013983,172.7132247976239L71.98273571825379,-74.7874880286071L28.922440427793266,-39.042448741788135z" style="fill:rgb(200,74,217)"/><path d="M102.96386879072422,226.16273943520955L-22.41711789725924,-9.888271712823707L-76.94929675940895,9.698324498316765z" style="fill:rgb(143,42,220)"/><path d="M142.54077124048808,203.04974745360227L28.922440427793266,-39.042448741788135L-22.41711789725924,-9.888271712823707z" style="fill:rgb(173,56,222)"/><path d="M-209.34112081585909,1.46587031714011L-174.5257727040746,14.900805014620289L-129.2472683457638,18.024597415480173zM-209.34112081585909,1.46587031714011L-22.41711789725924,-9.888271712823707L119.74584668304206,-151.26916941872904zM71.98273571825379,-74.7874880286071L102.93645945747656,-113.43101788222666L119.74584668304206,-151.26916941872904zM-209.34112081585909,1.46587031714011L-129.2472683457638,18.024597415480173L-22.41711789725924,-9.888271712823707zM-22.41711789725924,-9.888271712823707L71.98273571825379,-74.7874880286071L119.74584668304206,-151.26916941872904zM-129.2472683457638,18.024597415480173L-76.94929675940895,9.698324498316765L-22.41711789725924,-9.888271712823707zM-22.41711789725924,-9.888271712823707L28.922440427793266,-39.042448741788135L71.98273571825379,-74.7874880286071z" style="fill:rgb(83,212,212)"/></svg>
