<?xml version="1.0" encoding="UTF-8"?>
<!-- Generated by jsxcad -->
<!DOCTYPE svg PUBLIC "-//W3C//DTD SVG 1.1 Tiny//EN" "http://www.w3.org/Graphics/SVG/1.1/DTD/svg11-tiny.dtd">
<svg baseProfile="tiny" height="120.20304568527925mm" width="90.00000000000006mm" viewBox="-45.00000000000003 -61.842639593908665 90.00000000000006 120.20304568527925" version="1.1" stroke="black" stroke-width=".1" fill="none" xmlns="http://www.w3.org/2000/svg">
<path fill="#000000" stroke="#000000" d="M-24.25 -12.90126903553298 L-24.25 -16.434263959390847 L-24.25 -50.75355329949237 L-24.25 -47.2205583756345 z"/>
<path fill="#000000" stroke="#000000" d="M24.25 -12.901269035532998 L24.25 -16.434263959390854 L-24.25 -16.434263959390854 L-24.25 -12.901269035532998 z"/>
<path fill="#000000" stroke="#000000" d="M24.25 -47.2205583756345 L24.25 -50.75355329949237 L24.25 -16.434263959390847 L24.25 -12.90126903553298 z"/>
<path fill="#000000" stroke="#000000" d="M-24.25 -47.2205583756345 L-24.25 -50.753553299492374 L24.25 -50.753553299492374 L24.25 -47.2205583756345 z"/>
<path fill="#000000" stroke="#000000" d="M24.25 -12.90126903553298 L-24.25 -12.90126903553298 L-24.25 -47.220558375634496 L24.25 -47.220558375634496 z"/>
<path fill="#000000" stroke="#000000" d="M-30 51.228426395939096 L-30 1.7664974619289482 L-30 -40.69035532994922 L-30 8.771573604060928 z"/>
<path fill="#000000" stroke="#000000" d="M30 51.22842639593908 L30 1.7664974619289415 L-30 1.7664974619289415 L-30 51.22842639593908 z"/>
<path fill="#000000" stroke="#000000" d="M30 8.771573604060928 L30 -40.69035532994922 L30 1.7664974619289482 L30 51.228426395939096 z"/>
<path fill="#000000" stroke="#000000" d="M-30 8.77157360406089 L-30 -40.69035532994923 L30 -40.69035532994923 L30 8.77157360406089 z"/>
<path fill="#000000" stroke="#000000" d="M-30 1.766497461928948 L30 1.766497461928948 L30 -40.69035532994921 L-30 -40.69035532994921 z"/>
<path fill="#000000" stroke="#000000" d="M44.99999999999999 -1.8426395939086149 L44.99999999999999 61.842639593908636 L34.99999999999999 -8.827411167512675 L34.99999999999999 -58.360406091370535 z"/>
<path fill="#000000" stroke="#000000" d="M45 61.842639593908636 L-45 61.842639593908636 L-35 -8.827411167512675 L35 -8.827411167512675 z"/>
<path fill="#000000" stroke="#000000" d="M-35 -58.360406091370535 L35 -58.360406091370535 L35 -8.827411167512674 L-35 -8.827411167512674 M-24.25 -50.75355329949237 L-24.25 -16.434263959390847 L24.25 -16.434263959390847 L24.25 -50.75355329949237 z"/>
<path fill="#000000" stroke="#000000" d="M-45 -1.8426395939086155 L45 -1.8426395939086155 L35 -58.36040609137055 L-35 -58.36040609137055 z"/>
<path fill="#000000" stroke="#000000" d="M-44.99999999999999 61.842639593908636 L-44.99999999999999 -1.8426395939086149 L-34.99999999999999 -58.360406091370535 L-34.99999999999999 -8.827411167512674 z"/>
<path fill="#000000" stroke="#000000" d="M45 -1.842639593908615 L-45 -1.842639593908615 L-45 61.842639593908636 L45 61.842639593908636 M-30 8.771573604060926 L30 8.771573604060926 L30 51.228426395939096 L-30 51.228426395939096 z"/>
</svg>