<?xml version="1.0" encoding="UTF-8"?>
<!-- Generated by jsxcad -->
<!DOCTYPE svg PUBLIC "-//W3C//DTD SVG 1.1 Tiny//EN" "http://www.w3.org/Graphics/SVG/1.1/DTD/svg11-tiny.dtd">
<svg viewBox="-250 -250 500 500" width="500" height="500" xmlns="http://www.w3.org/2000/svg"><path d="M-79.93299140378544,20.676154060777428L-71.65442011406586,-89.29255798045783L-113.71288111540157,-68.11998126921789zM-79.93299140378544,20.676154060777428L-113.71288111540157,-68.11998126921789L-142.50095294274473,-35.16462975335115zM-79.93299140378544,20.676154060777428L-30.148983607549745,-91.69794315040225L-71.65442011406586,-89.29255798045783zM-79.93299140378544,20.676154060777428L-142.50095294274473,-35.16462975335115L-147.30645041287787,-1.241344715209543zM-79.93299140378544,20.676154060777428L-3.701818747459796,-73.4446052336351L-30.148983607549745,-91.69794315040225zM-79.93299140378544,20.676154060777428L-147.30645041287787,-1.241344715209543L-124.10622853339618,20.811835808759884zM-79.93299140378544,20.676154060777428L-3.8312470255145996,-39.61147042097195L-3.701818747459796,-73.4446052336351zM-79.93299140378544,20.676154060777428L-32.96862567912828,-2.904871071710227L-3.8312470255145996,-39.61147042097195zM94.5999561831079,118.12787741270887L83.22082064521337,-21.314064010478766L34.284208150607164,3.233207560510977zM94.5999561831079,118.12787741270887L34.284208150607164,3.233207560510977L4.164734891318839,43.27674863966562zM94.5999561831079,118.12787741270887L135.32711013986068,-22.475827273293547L83.22082064521337,-21.314064010478766zM94.5999561831079,118.12787741270887L4.164734891318839,43.27674863966562L4.329276820743871,86.11937720573613zM94.5999561831079,118.12787741270887L172.93811204855078,1.683725836950409L135.32711013986068,-22.475827273293547zM94.5999561831079,118.12787741270887L4.329276820743871,86.11937720573613L37.9777574714467,115.74441442186719zM94.5999561831079,118.12787741270887L180.06703202280082,44.67044036726282L172.93811204855078,1.683725836950409zM94.5999561831079,118.12787741270887L150.30729107135537,90.28372890360102L180.06703202280082,44.67044036726282z" style="fill:rgb(83,212,212)"/></svg>
