<?xml version="1.0" encoding="UTF-8"?>
<!-- Generated by jsxcad -->
<!DOCTYPE svg PUBLIC "-//W3C//DTD SVG 1.1 Tiny//EN" "http://www.w3.org/Graphics/SVG/1.1/DTD/svg11-tiny.dtd">
<svg viewBox="-250 -250 500 500" width="500" height="500" xmlns="http://www.w3.org/2000/svg"><path d="M-112.65823762586719,-164.04585052243624L9.736502783245218,63.41397157580715L93.28539023958025,43.2669922761422z" style="fill:rgb(127,37,217)"/><path d="M-16.313711954828168,135.0890304962385L9.736502783245218,63.41397157580715L-112.65823762586719,-164.04585052243624z" style="fill:rgb(241,128,184)"/><path d="M-12.306844304468836,-194.79994715226758L93.28539023958025,43.2669922761422L127.13383050451354,102.82564979458706z" style="fill:rgb(13,70,126)"/><path d="M93.28539023958025,43.2669922761422L-12.306844304468836,-194.79994715226758L-112.65823762586719,-164.04585052243624z" style="fill:rgb(127,37,217)"/><path d="M-3.61670761672906,-251.1576760063355L-113.17347545260802,-216.1274065876599L-112.65823762586719,-164.04585052243624z" style="fill:rgb(83,212,212)"/><path d="M-112.65823762586719,-164.04585052243624L-153.1835548525287,-89.51555134325298L-16.313711954828168,135.0890304962385z" style="fill:rgb(241,128,184)"/><path d="M-113.17347545260802,-216.1274065876599L-203.30985109878628,-145.8753960314218L-241.18189635076462,-61.70745353994216zM-3.61670761672906,-251.1576760063355L-112.65823762586719,-164.04585052243624L-12.306844304468836,-194.79994715226758z" style="fill:rgb(83,212,212)"/><path d="M164.50355695239762,179.09562555432035L208.67362331829676,86.99545430563425L121.59880428428815,-166.88528748823026z" style="fill:rgb(231,109,199)"/><path d="M-153.1835548525287,-89.51555134325298L-112.65823762586719,-164.04585052243624L-113.17347545260802,-216.1274065876599z" style="fill:rgb(83,212,212)"/><path d="M127.13383050451354,102.82564979458706L21.268142931084626,-140.19566402813683L-12.306844304468836,-194.79994715226758z" style="fill:rgb(13,70,126)"/><path d="M-153.1835548525287,-89.51555134325298L-113.17347545260802,-216.1274065876599L-241.18189635076462,-61.70745353994216z" style="fill:rgb(83,212,212)"/><path d="M-43.31024545358425,221.65714995027182L59.572058474000194,235.2863274920367L-76.59640318052557,4.879228758175194z" style="fill:rgb(86,32,201)"/><path d="M121.59880428428815,-166.88528748823026L-3.61670761672906,-251.1576760063355L-12.306844304468836,-194.79994715226758z" style="fill:rgb(83,212,212)"/><path d="M-76.59640318052557,4.879228758175194L59.572058474000194,235.2863274920367L164.50355695239762,179.09562555432035z" style="fill:rgb(168,53,222)"/><path d="M121.59880428428815,-166.88528748823026L89.30473963105123,-236.2830221269061L-3.61670761672906,-251.1576760063355zM-71.18329245863377,-69.04189123621359L-153.1835548525287,-89.51555134325298L-241.18189635076462,-61.70745353994216zM121.59880428428815,-166.88528748823026L-12.306844304468836,-194.79994715226758L21.268142931084626,-140.19566402813683z" style="fill:rgb(83,212,212)"/><path d="M-76.59640318052557,4.879228758175194L-198.19150496575935,2.4808844164787147L-43.31024545358425,221.65714995027182z" style="fill:rgb(86,32,201)"/><path d="M121.59880428428815,-166.88528748823026L58.550215512692844,-66.8401041284395L164.50355695239762,179.09562555432035z" style="fill:rgb(231,109,199)"/><path d="M164.50355695239762,179.09562555432035L58.550215512692844,-66.8401041284395L-76.59640318052557,4.879228758175194z" style="fill:rgb(168,53,222)"/><path d="M-71.18329245863377,-69.04189123621359L-241.18189635076462,-61.70745353994216L-76.59640318052557,4.879228758175194zM-241.18189635076462,-61.70745353994216L-198.19150496575935,2.4808844164787147L-76.59640318052557,4.879228758175194zM21.268142931084626,-140.19566402813683L-71.18329245863377,-69.04189123621359L-76.59640318052557,4.879228758175194zM-76.59640318052557,4.879228758175194L121.59880428428815,-166.88528748823026L21.268142931084626,-140.19566402813683zM-76.59640318052557,4.879228758175194L58.550215512692844,-66.8401041284395L121.59880428428815,-166.88528748823026z" style="fill:rgb(83,212,212)"/></svg>
