<?xml version="1.0" encoding="UTF-8"?>
<!-- Generated by jsxcad -->
<!DOCTYPE svg PUBLIC "-//W3C//DTD SVG 1.1 Tiny//EN" "http://www.w3.org/Graphics/SVG/1.1/DTD/svg11-tiny.dtd">
<svg viewBox="-250 -250 500 500" width="500" height="500" xmlns="http://www.w3.org/2000/svg"><path d="M6.278374207605905e-14,139.22233158266627L-5.712665724702351e-15,-109.6779533927698L-62.97271680065755,-82.08723735592419zM6.278374207605905e-14,139.22233158266627L-62.97271680065755,-82.08723735592419L-115.39127325068031,-39.44308839866592zM6.278374207605905e-14,139.22233158266627L64.99568014860127,-118.18291711351094L-5.712665724702351e-15,-109.6779533927698zM6.278374207605905e-14,139.22233158266627L-115.39127325068031,-39.44308839866592L-149.2216257372227,12.879816796813527zM6.278374207605905e-14,139.22233158266627L122.37039008486414,-104.82290263395332L64.99568014860127,-118.18291711351094zM6.278374207605905e-14,139.22233158266627L-149.2216257372227,12.879816796813527L-156.9479351240773,67.45302713763434zM6.278374207605905e-14,139.22233158266627L161.10358752387282,-69.02801973341776L122.37039008486414,-104.82290263395332zM6.278374207605905e-14,139.22233158266627L-156.9479351240773,67.45302713763434L-133.09370944958025,114.22592549560207zM6.278374207605905e-14,139.22233158266627L170.14660171292644,-14.463054117599192L161.10358752387282,-69.02801973341776zM6.278374207605905e-14,139.22233158266627L-133.09370944958025,114.22592549560207L-77.64878889242493,141.41884945238633zM6.278374207605905e-14,139.22233158266627L142.46540346672518,48.93027524993137L170.14660171292644,-14.463054117599192zM6.278374207605905e-14,139.22233158266627L80.74775060471498,105.49530142747251L142.46540346672518,48.93027524993137z" style="fill:rgb(83,212,212)"/></svg>
