<?xml version="1.0" encoding="UTF-8"?>
<!-- Generated by jsxcad -->
<!DOCTYPE svg PUBLIC "-//W3C//DTD SVG 1.1 Tiny//EN" "http://www.w3.org/Graphics/SVG/1.1/DTD/svg11-tiny.dtd">
<svg baseProfile="tiny" height="200.0000000000001mm" width="197.9642883761867mm" viewBox="-98.98214418809334 -100.00000000000006 98.98214418809334 100.00000000000006" version="1.1" stroke="black" stroke-width=".1" fill="none" xmlns="http://www.w3.org/2000/svg">
<path fill="#000000" stroke="#000000" d="M28.173255684142976 104.05070263855036 L28.173255684142976 104.05070263855036 L6.123233995736765e-15 100.0000000000001 L6.123233995736765e-15 100.0000000000001 z"/>
<path fill="#000000" stroke="#000000" d="M54.06408174555975 115.87464671688198 L54.06408174555975 115.87464671688198 L28.173255684142976 104.05070263855036 L28.173255684142976 104.05070263855036 z"/>
<path fill="#000000" stroke="#000000" d="M90.96319953545182 158.45849869981143 L90.96319953545182 158.45849869981143 L75.5749574354258 134.51392660547157 L75.5749574354258 134.51392660547157 z"/>
<path fill="#000000" stroke="#000000" d="M98.98214418809326 185.76851617267155 L98.98214418809326 185.76851617267155 L90.96319953545182 158.45849869981143 L90.96319953545182 158.45849869981143 z"/>
<path fill="#000000" stroke="#000000" d="M98.98214418809327 214.2314838273286 L98.98214418809327 214.2314838273286 L98.98214418809326 185.76851617267155 L98.98214418809326 185.76851617267155 z"/>
<path fill="#000000" stroke="#000000" d="M90.96319953545185 241.5415013001887 L90.96319953545185 241.5415013001887 L98.98214418809329 214.23148382732856 L98.98214418809329 214.23148382732856 z"/>
<path fill="#000000" stroke="#000000" d="M75.57495743542584 265.48607339452855 L75.57495743542584 265.48607339452855 L90.96319953545186 241.54150130018868 L90.96319953545186 241.54150130018868 z"/>
<path fill="#000000" stroke="#000000" d="M54.064081745559776 284.1253532831182 L54.064081745559776 284.1253532831182 L75.57495743542583 265.4860733945286 L75.57495743542583 265.4860733945286 z"/>
<path fill="#000000" stroke="#000000" d="M28.17325568414302 295.9492973614498 L28.17325568414302 295.9492973614498 L54.06408174555978 284.1253532831182 L54.06408174555978 284.1253532831182 z"/>
<path fill="#000000" stroke="#000000" d="M75.5749574354258 134.51392660547157 L75.5749574354258 134.51392660547157 L54.06408174555975 115.87464671688198 L54.06408174555975 115.87464671688198 z"/>
<path fill="#000000" stroke="#000000" d="M-28.173255684142898 295.94929736144985 L-28.173255684142898 295.94929736144985 L7.273661547324615e-14 300.00000000000006 L7.273661547324615e-14 300.00000000000006 z"/>
<path fill="#000000" stroke="#000000" d="M-54.06408174555971 284.1253532831182 L-54.06408174555971 284.1253532831182 L-28.1732556841429 295.94929736144985 L-28.1732556841429 295.94929736144985 z"/>
<path fill="#000000" stroke="#000000" d="M-75.57495743542577 265.48607339452866 L-75.57495743542577 265.48607339452866 L-54.06408174555971 284.1253532831182 L-54.06408174555971 284.1253532831182 z"/>
<path fill="#000000" stroke="#000000" d="M-90.96319953545182 241.54150130018874 L-90.96319953545182 241.54150130018874 L-75.57495743542582 265.4860733945286 L-75.57495743542582 265.4860733945286 z"/>
<path fill="#000000" stroke="#000000" d="M7.273661547324615e-14 300.0000000000001 L7.273661547324615e-14 300.0000000000001 L28.17325568414302 295.9492973614498 L28.17325568414302 295.9492973614498 z"/>
<path fill="#000000" stroke="#000000" d="M-98.98214418809327 214.23148382732862 L-98.98214418809327 214.23148382732862 L-90.96319953545182 241.54150130018874 L-90.96319953545182 241.54150130018874 z"/>
<path fill="#000000" stroke="#000000" d="M-98.98214418809329 185.76851617267158 L-98.98214418809329 185.76851617267158 L-98.98214418809327 214.2314838273286 L-98.98214418809327 214.2314838273286 z"/>
<path fill="#000000" stroke="#000000" d="M-90.96319953545182 158.45849869981143 L-90.96319953545182 158.45849869981143 L-98.98214418809327 185.76851617267158 L-98.98214418809327 185.76851617267158 z"/>
<path fill="#000000" stroke="#000000" d="M6.123233995736765e-15 100.00000000000011 L6.123233995736765e-15 100.00000000000011 L-28.17325568414288 104.05070263855033 L-28.17325568414288 104.05070263855033 z"/>
<path fill="#000000" stroke="#000000" d="M-75.57495743542579 134.51392660547154 L-75.57495743542579 134.51392660547154 L-90.9631995354518 158.45849869981143 L-90.9631995354518 158.45849869981143 z"/>
<path fill="#000000" stroke="#000000" d="M-28.17325568414288 104.05070263855033 L-28.17325568414288 104.05070263855033 L-54.06408174555974 115.87464671688197 L-54.06408174555974 115.87464671688197 z"/>
<path fill="#000000" stroke="#000000" d="M-54.06408174555974 115.87464671688197 L-54.06408174555974 115.87464671688197 L-75.57495743542579 134.51392660547157 L-75.57495743542579 134.51392660547157 z"/>
<path fill="#000000" stroke="#000000" d="M28.17325568414298 104.05070263855036 L6.123233995736766e-15 100.0000000000001 L-28.173255684142884 104.05070263855033 L-54.06408174555975 115.87464671688197 L-75.5749574354258 134.51392660547157 L-90.96319953545184 158.45849869981146 L-98.98214418809329 185.76851617267158 L-98.98214418809327 214.23148382732862 L-90.96319953545182 241.54150130018874 L-75.57495743542579 265.4860733945286 L-54.06408174555972 284.1253532831182 L-28.173255684142905 295.9492973614498 L7.273661547324616e-14 300.00000000000006 L28.173255684143022 295.9492973614498 L54.06408174555979 284.12535328311816 L75.57495743542584 265.48607339452855 L90.96319953545185 241.5415013001887 L98.98214418809329 214.2314838273286 L98.98214418809327 185.76851617267155 L90.96319953545184 158.45849869981143 L75.57495743542582 134.51392660547157 L54.064081745559754 115.87464671688197 z"/>
<path fill="#000000" stroke="#000000" d="M28.17325568414298 104.05070263855036 L54.064081745559754 115.87464671688197 L75.57495743542582 134.51392660547157 L90.96319953545184 158.45849869981143 L98.98214418809327 185.76851617267155 L98.98214418809329 214.2314838273286 L90.96319953545185 241.5415013001887 L75.57495743542584 265.48607339452855 L54.06408174555979 284.12535328311816 L28.173255684143022 295.9492973614498 L7.273661547324616e-14 300.00000000000006 L-28.173255684142905 295.9492973614498 L-54.06408174555972 284.1253532831182 L-75.57495743542579 265.4860733945286 L-90.96319953545182 241.54150130018874 L-98.98214418809327 214.23148382732862 L-98.98214418809329 185.76851617267158 L-90.96319953545184 158.45849869981146 L-75.5749574354258 134.51392660547157 L-54.06408174555975 115.87464671688197 L-28.173255684142884 104.05070263855033 L6.123233995736766e-15 100.0000000000001 z"/>
</svg>