<?xml version="1.0" encoding="UTF-8"?>
<!-- Generated by jsxcad -->
<!DOCTYPE svg PUBLIC "-//W3C//DTD SVG 1.1 Tiny//EN" "http://www.w3.org/Graphics/SVG/1.1/DTD/svg11-tiny.dtd">
<svg baseProfile="tiny" height="20mm" width="141.42857142857142mm" viewBox="-70.71428571428571 -10 141.42857142857142 20" version="1.1" stroke="black" stroke-width=".1" fill="none" xmlns="http://www.w3.org/2000/svg">
<path fill="none" stroke="#000000" d="M-70.71428571428571 10 L-70.71428571428571 -5"/>
<path fill="none" stroke="#000000" d="M-70.71428571428571 10 L-60.714285714285715 -5"/>
<path fill="none" stroke="#000000" d="M-60.714285714285715 10 L-60.714285714285715 -5"/>
<path fill="none" stroke="#000000" d=""/>
<path fill="none" stroke="#000000" d="M-52.14285714285714 5 L-53.57142857142857 4.285714285714285 L-55 2.8571428571428568 L-55.714285714285715 0.7142857142857135 L-55.714285714285715 -0.7142857142857144 L-55 -2.857142857142857 L-53.57142857142857 -4.285714285714286 L-52.14285714285714 -5 L-50 -5 L-48.57142857142857 -4.285714285714286 L-47.14285714285714 -2.857142857142857 L-46.42857142857143 -0.7142857142857144 L-46.42857142857143 0.7142857142857135 L-47.14285714285714 2.8571428571428568 L-48.57142857142857 4.285714285714285 L-50 5 L-52.14285714285714 5"/>
<path fill="none" stroke="#000000" d=""/>
<path fill="none" stroke="#000000" d=""/>
<path fill="none" stroke="#000000" d="M-20 6.428571428571427 L-20.714285714285715 7.857142857142856 L-22.142857142857146 9.285714285714285 L-23.57142857142857 10 L-26.428571428571423 10 L-27.85714285714286 9.285714285714285 L-29.285714285714292 7.857142857142856 L-30 6.428571428571427 L-30.714285714285715 4.285714285714285 L-30.714285714285715 0.7142857142857135 L-30 -1.4285714285714288 L-29.285714285714292 -2.857142857142857 L-27.85714285714286 -4.285714285714286 L-26.428571428571423 -5 L-23.57142857142857 -5 L-22.142857142857146 -4.285714285714286 L-20.714285714285715 -2.857142857142857 L-20 -1.4285714285714288 L-20 0.7142857142857135"/>
<path fill="none" stroke="#000000" d="M-23.57142857142857 0.7142857142857135 L-20 0.7142857142857135"/>
<path fill="none" stroke="#000000" d=""/>
<path fill="none" stroke="#000000" d="M-15.714285714285715 0.7142857142857135 L-7.142857142857153 0.7142857142857135 L-7.142857142857153 2.1428571428571423 L-7.857142857142861 3.571428571428571 L-8.57142857142857 4.285714285714285 L-10 5 L-12.142857142857146 5 L-13.57142857142857 4.285714285714285 L-15 2.8571428571428568 L-15.714285714285715 0.7142857142857135 L-15.714285714285715 -0.7142857142857144 L-15 -2.857142857142857 L-13.57142857142857 -4.285714285714286 L-12.142857142857146 -5 L-10 -5 L-8.57142857142857 -4.285714285714286 L-7.142857142857153 -2.857142857142857"/>
<path fill="none" stroke="#000000" d=""/>
<path fill="none" stroke="#000000" d="M0.7142857142857082 5 L-0.7142857142857082 4.285714285714285 L-2.142857142857153 2.8571428571428568 L-2.857142857142861 0.7142857142857135 L-2.857142857142861 -0.7142857142857144 L-2.142857142857153 -2.857142857142857 L-0.7142857142857082 -4.285714285714286 L0.7142857142857082 -5 L2.857142857142847 -5 L4.285714285714292 -4.285714285714286 L5.714285714285708 -2.857142857142857 L6.428571428571431 -0.7142857142857144 L6.428571428571431 0.7142857142857135 L5.714285714285708 2.8571428571428568 L4.285714285714292 4.285714285714285 L2.857142857142847 5 L0.7142857142857082 5"/>
<path fill="none" stroke="#000000" d=""/>
<path fill="none" stroke="#000000" d="M11.42857142857143 5 L11.42857142857143 -5"/>
<path fill="none" stroke="#000000" d="M11.42857142857143 2.1428571428571423 L13.57142857142857 4.285714285714285 L14.999999999999986 5 L17.14285714285714 5 L18.57142857142857 4.285714285714285 L19.285714285714278 2.1428571428571423 L19.285714285714278 -5"/>
<path fill="none" stroke="#000000" d="M19.285714285714278 2.1428571428571423 L21.42857142857143 4.285714285714285 L22.857142857142847 5 L24.999999999999986 5 L26.42857142857143 4.285714285714285 L27.14285714285714 2.1428571428571423 L27.14285714285714 -5"/>
<path fill="none" stroke="#000000" d=""/>
<path fill="none" stroke="#000000" d="M32.14285714285714 0.7142857142857135 L40.71428571428571 0.7142857142857135 L40.71428571428571 2.1428571428571423 L39.999999999999986 3.571428571428571 L39.28571428571428 4.285714285714285 L37.85714285714285 5 L35.71428571428572 5 L34.28571428571428 4.285714285714285 L32.85714285714285 2.8571428571428568 L32.14285714285714 0.7142857142857135 L32.14285714285714 -0.7142857142857144 L32.85714285714285 -2.857142857142857 L34.28571428571428 -4.285714285714286 L35.71428571428572 -5 L37.85714285714285 -5 L39.28571428571428 -4.285714285714286 L40.71428571428571 -2.857142857142857"/>
<path fill="none" stroke="#000000" d=""/>
<path fill="none" stroke="#000000" d="M46.42857142857143 10 L46.42857142857143 -2.1428571428571432 L47.14285714285714 -4.285714285714286 L48.57142857142857 -5 L49.999999999999986 -5"/>
<path fill="none" stroke="#000000" d="M44.28571428571428 5 L49.28571428571428 5"/>
<path fill="none" stroke="#000000" d=""/>
<path fill="none" stroke="#000000" d="M54.28571428571428 5 L54.28571428571428 -5"/>
<path fill="none" stroke="#000000" d="M54.28571428571428 0.7142857142857135 L54.999999999999986 2.8571428571428568 L56.42857142857143 4.285714285714285 L57.85714285714285 5 L59.999999999999986 5"/>
<path fill="none" stroke="#000000" d=""/>
<path fill="none" stroke="#000000" d="M62.14285714285715 5 L66.42857142857143 -5"/>
<path fill="none" stroke="#000000" d="M70.71428571428571 5 L66.42857142857143 -5 L64.99999999999999 -7.857142857142857 L63.57142857142857 -9.285714285714285 L62.14285714285715 -10 L61.42857142857143 -10"/>
<path fill="none" stroke="#000000" d=""/>
</svg>