<?xml version="1.0" encoding="UTF-8"?>
<!-- Generated by jsxcad -->
<!DOCTYPE svg PUBLIC "-//W3C//DTD SVG 1.1 Tiny//EN" "http://www.w3.org/Graphics/SVG/1.1/DTD/svg11-tiny.dtd">
<svg viewBox="-250 -250 500 500" width="500" height="500" xmlns="http://www.w3.org/2000/svg"><path d="M-65.74055309795148,-38.14418952117515L55.83221239260742,-134.7992788001422L-61.612611218959664,-101.12223358635642zM-65.74055309795148,-38.14418952117515L59.69074312201649,-72.16421876398216L55.83221239260742,-134.7992788001422z" style="fill:rgb(83,212,212)"/><path d="M66.79998072880798,-55.54349687396465L-65.74055309795148,-38.14418952117515L-57.02976577671795,-22.516257936926024z" style="fill:rgb(127,37,217)"/><path d="M-182.84100196130052,171.33394337672695L-61.612611218959664,-101.12223358635642L-145.3759609050435,-77.10329216692044z" style="fill:rgb(83,212,212)"/><path d="M66.79998072880798,-55.54349687396465L59.69074312201649,-72.16421876398216L-65.74055309795148,-38.14418952117515z" style="fill:rgb(127,37,217)"/><path d="M-57.02976577671795,-22.516257936926024L-65.74055309795148,-38.14418952117515L-72.18930252136529,60.24132875135523zM-57.02976577671795,-22.516257936926024L-72.18930252136529,60.24132875135523L-62.535247674115,75.81636203871427z" style="fill:rgb(247,158,158)"/><path d="M71.16675823040347,114.12451300809786L148.56160905973582,-161.38921583983787L55.83221239260742,-134.7992788001422z" style="fill:rgb(83,212,212)"/><path d="M154.0965924904307,-144.2066627143354L148.56160905973582,-161.38921583983787L190.54764091189688,87.2366999403201z" style="fill:rgb(247,158,158)"/><path d="M-182.84100196130052,171.33394337672695L-77.92206325628942,147.7033612918464L-61.612611218959664,-101.12223358635642zM-77.92206325628942,147.7033612918464L65.74926629495832,26.18304153235739L-72.18930252136529,60.24132875135523z" style="fill:rgb(83,212,212)"/><path d="M154.0965924904307,-144.2066627143354L190.54764091189688,87.2366999403201L196.85223124670043,104.64998532125902z" style="fill:rgb(247,158,158)"/><path d="M71.16675823040347,114.12451300809786L190.54764091189688,87.2366999403201L148.56160905973582,-161.38921583983787z" style="fill:rgb(83,212,212)"/><path d="M196.85223124670043,104.64998532125902L-182.84100196130052,171.33394337672695L-170.8598438623034,185.83669459963664z" style="fill:rgb(127,37,217)"/><path d="M-77.92206325628942,147.7033612918464L71.16675823040347,114.12451300809786L65.74926629495832,26.18304153235739z" style="fill:rgb(83,212,212)"/><path d="M196.85223124670043,104.64998532125902L190.54764091189688,87.2366999403201L-182.84100196130052,171.33394337672695z" style="fill:rgb(127,37,217)"/></svg>
