<?xml version="1.0" encoding="UTF-8"?>
<!-- Generated by jsxcad -->
<!DOCTYPE svg PUBLIC "-//W3C//DTD SVG 1.1 Tiny//EN" "http://www.w3.org/Graphics/SVG/1.1/DTD/svg11-tiny.dtd">
<svg baseProfile="tiny" height="199.41379571543607mm" width="199.7066827702249mm" viewBox="-99.85334138511244 -100.00000000000006 99.85334138511244 99.41379571543601" version="1.1" stroke="black" stroke-width=".1" fill="none" xmlns="http://www.w3.org/2000/svg">
<path fill="#000000" stroke="#000000" d="M6.123233995736765e-15 99.41379571543607 L6.123233995736765e-15 99.41379571543607 L-21.497044021102344 101.75174014442737 L-21.497044021102344 101.75174014442737 z"/>
<path fill="#000000" stroke="#000000" d="M21.497044021102397 101.75174014442739 L21.497044021102397 101.75174014442739 L6.123233995736765e-15 99.41379571543605 L6.123233995736765e-15 99.41379571543605 z"/>
<path fill="#000000" stroke="#000000" d="M41.988910156026456 108.65625374834035 L41.988910156026456 108.65625374834035 L21.497044021102397 101.75174014442739 L21.497044021102397 101.75174014442739 z"/>
<path fill="#000000" stroke="#000000" d="M60.517421519376505 119.80448914487168 L60.517421519376505 119.80448914487168 L41.988910156026456 108.65625374834035 L41.988910156026456 108.65625374834035 z"/>
<path fill="#000000" stroke="#000000" d="M-21.497044021102344 101.75174014442737 L-21.497044021102344 101.75174014442737 L-41.98891015602632 108.65625374834029 L-41.98891015602632 108.65625374834029 z"/>
<path fill="#000000" stroke="#000000" d="M88.35120444460227 152.57295164545704 L88.35120444460227 152.57295164545704 L76.21620551276362 134.67516723725328 L76.21620551276362 134.67516723725328 z"/>
<path fill="#000000" stroke="#000000" d="M76.21620551276362 134.67516723725328 L76.21620551276362 134.67516723725328 L60.517421519376505 119.80448914487168 L60.517421519376505 119.80448914487168 z"/>
<path fill="#000000" stroke="#000000" d="M99.85334138511237 193.9999048568943 L99.85334138511237 193.9999048568943 L96.35499925192228 172.66096186251397 L96.35499925192228 172.66096186251397 z"/>
<path fill="#000000" stroke="#000000" d="M98.68265225415261 215.59199537071248 L98.68265225415261 215.59199537071248 L99.85334138511239 193.99990485689426 L99.85334138511239 193.99990485689426 z"/>
<path fill="#000000" stroke="#000000" d="M96.35499925192228 172.66096186251394 L96.35499925192228 172.66096186251394 L88.35120444460227 152.572951645457 L88.35120444460227 152.572951645457 z"/>
<path fill="#000000" stroke="#000000" d="M92.89767198167915 236.42761124942749 L92.89767198167915 236.42761124942749 L98.68265225415261 215.59199537071248 L98.68265225415261 215.59199537071248 z"/>
<path fill="#000000" stroke="#000000" d="M82.76889981568905 255.53250225167426 L82.76889981568905 255.53250225167426 L92.89767198167915 236.42761124942746 L92.89767198167915 236.42761124942746 z"/>
<path fill="#000000" stroke="#000000" d="M68.76994588534234 272.0133449077491 L68.76994588534234 272.0133449077491 L82.76889981568907 255.53250225167426 L82.76889981568907 255.53250225167426 z"/>
<path fill="#000000" stroke="#000000" d="M51.555385717702165 285.099513332195 L51.555385717702165 285.099513332195 L68.76994588534232 272.0133449077491 L68.76994588534232 272.0133449077491 z"/>
<path fill="#000000" stroke="#000000" d="M31.93015301359799 294.1791128337163 L31.93015301359799 294.1791128337163 L51.555385717702165 285.099513332195 L51.555385717702165 285.099513332195 z"/>
<path fill="#000000" stroke="#000000" d="M10.811901842394207 298.827591430872 L10.811901842394207 298.827591430872 L31.93015301359799 294.1791128337163 L31.93015301359799 294.1791128337163 z"/>
<path fill="#000000" stroke="#000000" d="M-10.811901842394175 298.827591430872 L-10.811901842394175 298.827591430872 L10.811901842394208 298.827591430872 L10.811901842394208 298.827591430872 z"/>
<path fill="#000000" stroke="#000000" d="M-68.7699458853423 272.0133449077491 L-68.7699458853423 272.0133449077491 L-51.555385717702144 285.099513332195 L-51.555385717702144 285.099513332195 z"/>
<path fill="#000000" stroke="#000000" d="M-31.93015301359798 294.1791128337163 L-31.93015301359798 294.1791128337163 L-10.811901842394173 298.827591430872 L-10.811901842394173 298.827591430872 z"/>
<path fill="#000000" stroke="#000000" d="M-51.555385717702144 285.099513332195 L-51.555385717702144 285.099513332195 L-31.93015301359798 294.1791128337163 L-31.93015301359798 294.1791128337163 z"/>
<path fill="#000000" stroke="#000000" d="M-99.85334138511239 193.99990485689423 L-99.85334138511239 193.99990485689423 L-98.68265225415261 215.5919953707125 L-98.68265225415261 215.5919953707125 z"/>
<path fill="#000000" stroke="#000000" d="M-96.35499925192228 172.66096186251394 L-96.35499925192228 172.66096186251394 L-99.85334138511237 193.99990485689423 L-99.85334138511237 193.99990485689423 z"/>
<path fill="#000000" stroke="#000000" d="M-88.35120444460227 152.572951645457 L-88.35120444460227 152.572951645457 L-96.35499925192228 172.66096186251394 L-96.35499925192228 172.66096186251394 z"/>
<path fill="#000000" stroke="#000000" d="M-76.21620551276358 134.67516723725322 L-76.21620551276358 134.67516723725322 L-88.35120444460227 152.572951645457 L-88.35120444460227 152.572951645457 z"/>
<path fill="#000000" stroke="#000000" d="M-60.51742151937647 119.80448914487164 L-60.51742151937647 119.80448914487164 L-76.21620551276358 134.67516723725322 L-76.21620551276358 134.67516723725322 z"/>
<path fill="#000000" stroke="#000000" d="M-41.98891015602632 108.65625374834029 L-41.98891015602632 108.65625374834029 L-60.51742151937647 119.80448914487164 L-60.51742151937647 119.80448914487164 z"/>
<path fill="#000000" stroke="#000000" d="M-98.68265225415261 215.59199537071248 L-98.68265225415261 215.59199537071248 L-92.89767198167914 236.42761124942746 L-92.89767198167914 236.42761124942746 z"/>
<path fill="#000000" stroke="#000000" d="M-92.89767198167915 236.42761124942746 L-92.89767198167915 236.42761124942746 L-82.76889981568904 255.5325022516743 L-82.76889981568904 255.5325022516743 z"/>
<path fill="#000000" stroke="#000000" d="M-82.76889981568904 255.5325022516743 L-82.76889981568904 255.5325022516743 L-68.76994588534231 272.0133449077491 L-68.76994588534231 272.0133449077491 z"/>
<path fill="#000000" stroke="#000000" d="M6.123233995736766e-15 99.41379571543605 L-21.497044021102347 101.75174014442737 L-41.98891015602633 108.65625374834029 L-60.51742151937648 119.80448914487162 L-76.2162055127636 134.67516723725322 L-88.35120444460229 152.572951645457 L-96.3549992519223 172.66096186251391 L-99.85334138511239 193.99990485689423 L-98.68265225415261 215.5919953707125 L-92.89767198167914 236.42761124942749 L-82.76889981568904 255.53250225167426 L-68.76994588534231 272.01334490774906 L-51.55538571770215 285.099513332195 L-31.930153013597984 294.17911283371626 L-10.811901842394175 298.82759143087196 L10.811901842394208 298.82759143087196 L31.930153013597995 294.17911283371626 L51.55538571770217 285.09951333219493 L68.76994588534234 272.01334490774906 L82.76889981568905 255.53250225167426 L92.89767198167915 236.42761124942749 L98.68265225415261 215.5919953707125 L99.85334138511239 193.99990485689426 L96.3549992519223 172.66096186251394 L88.35120444460229 152.572951645457 L76.21620551276364 134.67516723725328 L60.51742151937651 119.80448914487168 L41.98891015602646 108.65625374834035 L21.4970440211024 101.75174014442739 z"/>
<path fill="#000000" stroke="#000000" d="M6.123233995736766e-15 99.41379571543605 L21.4970440211024 101.75174014442739 L41.98891015602646 108.65625374834035 L60.51742151937651 119.80448914487168 L76.21620551276364 134.67516723725328 L88.35120444460229 152.572951645457 L96.3549992519223 172.66096186251394 L99.85334138511239 193.99990485689426 L98.68265225415261 215.5919953707125 L92.89767198167915 236.42761124942749 L82.76889981568905 255.53250225167426 L68.76994588534234 272.01334490774906 L51.55538571770217 285.09951333219493 L31.930153013597995 294.17911283371626 L10.811901842394208 298.82759143087196 L-10.811901842394175 298.82759143087196 L-31.930153013597984 294.17911283371626 L-51.55538571770215 285.099513332195 L-68.76994588534231 272.01334490774906 L-82.76889981568904 255.53250225167426 L-92.89767198167914 236.42761124942749 L-98.68265225415261 215.5919953707125 L-99.85334138511239 193.99990485689423 L-96.3549992519223 172.66096186251391 L-88.35120444460229 152.572951645457 L-76.2162055127636 134.67516723725322 L-60.51742151937648 119.80448914487162 L-41.98891015602633 108.65625374834029 L-21.497044021102347 101.75174014442737 z"/>
</svg>